<?xml version="1.0" encoding="utf-8"?>
<!-- Generator: Adobe Illustrator 23.0.3, SVG Export Plug-In . SVG Version: 6.00 Build 0)  -->
<svg version="1.1" xmlns="http://www.w3.org/2000/svg" xmlns:xlink="http://www.w3.org/1999/xlink" x="0px" y="0px"
	 viewBox="0 0 1214 774" style="enable-background:new 0 0 1214 774;" xml:space="preserve">
<style type="text/css">
	.st0{fill-rule:evenodd;clip-rule:evenodd;fill:#DBE5FD;}
	.st1{fill-rule:evenodd;clip-rule:evenodd;fill:#FFC107;}
	.st2{fill:none;stroke:#FFFFFF;stroke-width:4;}
	.st3{fill-rule:evenodd;clip-rule:evenodd;fill:#DBE5FD;stroke:#FFFFFF;stroke-miterlimit:10;}
	.st4{fill:none;stroke:#FFC107;stroke-width:3;stroke-linecap:square;}
</style>
<g id="Layer_1">
</g>
<g id="Layer_2">
	<g id="nomnom-">
		<path id="nomnom" class="st0" d="M521.1,81V57.4h3l0.5,3.4c0.9-1.2,2.1-2.1,3.5-2.8s2.9-1.1,4.5-1.1c2.7,0,4.7,0.8,6,2.3
			s2,3.9,2,7V81H537c0-9.5,0-14.5,0-15.2c-0.1-2-0.5-3.5-1.2-4.4s-2-1.4-3.8-1.4s-3.4,0.4-4.6,1.3s-2,2-2.4,3.5
			c-0.1,1-0.2,2.1-0.2,3.3V81H521.1z M549.1,69.3c0,2.8,0.6,5,1.9,6.7s3,2.5,5.4,2.5c2.3,0,4.1-0.8,5.3-2.5s1.8-3.9,1.8-6.8
			s-0.6-5.1-1.8-6.8s-3-2.5-5.4-2.5c-2.3,0-4.1,0.8-5.4,2.5C549.7,64.2,549.1,66.4,549.1,69.3z M567.2,69.2c0,3.7-1,6.6-2.9,8.9
			s-4.6,3.4-8.1,3.4c-3.3,0-5.9-1.1-7.9-3.4s-2.9-5.2-2.9-8.8c0-3.7,1-6.6,2.9-8.9c2-2.3,4.7-3.4,8.1-3.4c3.4,0,6,1.1,7.9,3.4
			S567.2,65.6,567.2,69.2z M602.2,81V68.7c0-1.1,0-2.1-0.1-2.9s-0.2-1.6-0.3-2.4s-0.4-1.4-0.8-1.9s-0.8-0.8-1.3-1.1
			s-1.3-0.4-2.1-0.4c-1.6,0-2.9,0.4-4,1.3s-1.9,2-2.4,3.6c-0.1,1-0.2,2.1-0.2,3.3V81h-3.6V68.3c0-1.1,0-2-0.1-2.8s-0.2-1.5-0.4-2.3
			s-0.5-1.3-0.8-1.8s-0.8-0.8-1.3-1.1s-1.2-0.4-2-0.4c-1.7,0-3.2,0.4-4.3,1.3s-2,2-2.4,3.5c-0.1,1.1-0.2,2.3-0.2,3.6V81h-3.6
			c0-14.7,0-22.6,0-23.6h3l0.5,3.4c0.7-1.1,1.7-2,3.1-2.8s2.8-1.1,4.5-1.1c0.9,0,1.7,0.1,2.4,0.3s1.4,0.4,1.8,0.7s0.9,0.6,1.3,1
			s0.7,0.8,0.9,1.1s0.4,0.7,0.5,1.1c1.7-2.8,4.3-4.2,7.9-4.2c2.6,0,4.5,0.7,5.8,2.2s1.8,3.7,1.8,6.6V81H602.2z M610.4,81V57.4h3
			l0.5,3.4c0.9-1.2,2.1-2.1,3.5-2.8s2.9-1.1,4.5-1.1c2.7,0,4.7,0.8,6,2.3s2,3.9,2,7V81h-3.6c0-9.5,0-14.5,0-15.2
			c-0.1-2-0.5-3.5-1.2-4.4s-2-1.4-3.8-1.4s-3.4,0.4-4.6,1.3s-2,2-2.4,3.5c-0.1,1-0.2,2.1-0.2,3.3V81H610.4z M638.5,69.3
			c0,2.8,0.6,5,1.9,6.7s3,2.5,5.4,2.5c2.3,0,4.1-0.8,5.3-2.5s1.8-3.9,1.8-6.8s-0.6-5.1-1.8-6.8s-3-2.5-5.4-2.5
			c-2.3,0-4.1,0.8-5.4,2.5C639.1,64.2,638.5,66.4,638.5,69.3z M656.6,69.2c0,3.7-1,6.6-2.9,8.9s-4.6,3.4-8.1,3.4
			c-3.3,0-5.9-1.1-7.9-3.4s-2.9-5.2-2.9-8.8c0-3.7,1-6.6,2.9-8.9c2-2.3,4.7-3.4,8.1-3.4c3.4,0,6,1.1,7.9,3.4S656.6,65.6,656.6,69.2z
			 M691.6,81V68.7c0-1.1,0-2.1-0.1-2.9s-0.2-1.6-0.3-2.4s-0.4-1.4-0.8-1.9s-0.8-0.8-1.3-1.1S687.8,60,687,60c-1.6,0-2.9,0.4-4,1.3
			s-1.9,2-2.4,3.6c-0.1,1-0.2,2.1-0.2,3.3V81h-3.6V68.3c0-1.1,0-2-0.1-2.8s-0.2-1.5-0.4-2.3s-0.5-1.3-0.8-1.8s-0.8-0.8-1.3-1.1
			s-1.2-0.4-2-0.4c-1.7,0-3.2,0.4-4.3,1.3s-2,2-2.4,3.5c-0.1,1.1-0.2,2.3-0.2,3.6V81h-3.6c0-14.7,0-22.6,0-23.6h3l0.5,3.4
			c0.7-1.1,1.7-2,3.1-2.8s2.8-1.1,4.5-1.1c0.9,0,1.7,0.1,2.4,0.3s1.4,0.4,1.8,0.7s0.9,0.6,1.3,1s0.7,0.8,0.9,1.1s0.4,0.7,0.5,1.1
			c1.7-2.8,4.3-4.2,7.9-4.2c2.6,0,4.5,0.7,5.8,2.2s1.8,3.7,1.8,6.6V81H691.6z"/>
		<g id="Group-3" transform="translate(42.000000, 148.000000)">
			<path id="The-restaurant-name" class="st1" d="M24.6,452h-2v-15.5h-5.3v-1.8H30v1.8h-5.3V452H24.6z M40.4,452v-7.8
				c0-1.3-0.2-2.2-0.6-2.8s-1.1-0.9-2.2-0.9c-1,0-1.8,0.2-2.5,0.7s-1.1,1.1-1.3,1.9c-0.1,0.6-0.1,1.2-0.1,2v6.9h-2v-17.8l2-0.1v5.2
				c0,0.4,0,1,0,1.7c1.1-1.4,2.6-2,4.4-2c2.9,0,4.3,1.7,4.3,5.1v8.1h-2V452z M49.8,440.5c-1,0-1.8,0.4-2.4,1.1s-1,1.7-1.1,2.9H53
				c0-1.3-0.3-2.3-0.9-2.9S50.8,440.5,49.8,440.5z M50.2,452.3c-1.9,0-3.3-0.6-4.4-1.8s-1.6-2.8-1.6-4.9c0-2,0.5-3.6,1.6-4.8
				s2.4-1.9,4.1-1.9c1.6,0,2.9,0.5,3.8,1.6s1.4,2.5,1.4,4.4c0,0.1,0,0.3,0,0.5s0,0.4,0,0.5h-8.8c0,1.5,0.4,2.6,1.1,3.4
				s1.7,1.2,2.9,1.2c1.4,0,2.7-0.4,4.1-1.1l0.3,1.6C53.4,451.9,51.9,452.3,50.2,452.3z M69.5,439c0.4,0,0.7,0,1,0.1l-0.1,1.8
				c-0.4-0.1-0.7-0.1-0.9-0.1c-1.1,0-2,0.4-2.7,1.1s-1,1.7-1,2.8v7.2h-2c0-7.9,0-12.2,0-12.9h1.6l0.2,2.3c0.4-0.7,1-1.3,1.7-1.8
				S68.7,439,69.5,439z M77.5,440.5c-1,0-1.8,0.4-2.4,1.1s-1,1.7-1.1,2.9h6.8c0-1.3-0.3-2.3-0.9-2.9S78.5,440.5,77.5,440.5z
				 M77.9,452.3c-1.9,0-3.3-0.6-4.4-1.8s-1.6-2.8-1.6-4.9c0-2,0.5-3.6,1.6-4.8s2.4-1.9,4.1-1.9c1.6,0,2.9,0.5,3.8,1.6
				s1.4,2.5,1.4,4.4c0,0.1,0,0.3,0,0.5s0,0.4,0,0.5H74c0,1.5,0.4,2.6,1.1,3.4s1.7,1.2,2.9,1.2c1.4,0,2.7-0.4,4.1-1.1l0.3,1.6
				C81.1,451.9,79.6,452.3,77.9,452.3z M89.3,452.3c-0.9,0-1.7-0.1-2.4-0.3s-1.3-0.4-1.8-0.7l0.2-1.7c1.3,0.7,2.6,1,3.8,1
				c1.9,0,2.9-0.7,2.9-2c0-0.6-0.2-1-0.6-1.3s-1.2-0.7-2.4-1.1l-1-0.3c-1.1-0.4-1.9-0.8-2.4-1.4s-0.7-1.2-0.7-2.1
				c0-1,0.4-1.8,1.2-2.5s1.9-1,3.3-1c1.5,0,2.8,0.3,4,0.8l-0.6,1.5c-1.2-0.5-2.3-0.8-3.4-0.8c-0.8,0-1.5,0.2-1.9,0.5
				s-0.7,0.8-0.7,1.4c0,0.5,0.2,0.9,0.5,1.1s1,0.6,2,0.9c0.3,0.1,0.6,0.2,1,0.3c1.3,0.4,2.2,0.9,2.8,1.5s0.8,1.3,0.8,2.3
				c0,1.2-0.4,2.1-1.3,2.8S90.7,452.3,89.3,452.3z M100.7,452.2c-1.3,0-2.2-0.3-2.7-0.9s-0.8-1.6-0.8-3v-7.7h-1.9l0.1-1.3l1.8-0.2
				l0.7-2.9h1.3v3h3.6v1.5h-3.6v7.4c0,1,0.1,1.7,0.4,2.1s0.8,0.6,1.5,0.6c0.3,0,0.8-0.1,1.7-0.2l0.1,1.5
				C101.9,452.2,101.2,452.2,100.7,452.2z M108.7,450.7c0.9,0,1.7-0.3,2.5-0.8c0.7-0.5,1.2-1.2,1.4-2.1v-2.2c0,0-0.3,0-0.7,0.1
				s-0.7,0.1-0.8,0.1c-1.7,0.1-2.9,0.4-3.5,0.8s-1,1.1-1,2c0,0.7,0.2,1.2,0.6,1.6S107.9,450.7,108.7,450.7z M112.9,452
				c-0.1-0.5-0.2-1-0.3-1.6c-0.7,0.7-1.4,1.2-2,1.5s-1.4,0.4-2.2,0.4c-1.2,0-2.2-0.3-2.9-0.9c-0.7-0.6-1.1-1.5-1.1-2.7
				c0-1.3,0.5-2.3,1.5-2.9s2.4-1,4.3-1.2c0.3,0,0.6-0.1,1.2-0.1s0.9-0.1,1.2-0.1v-1.1c0-0.9-0.2-1.6-0.6-2s-1.1-0.7-2-0.7
				c-1.3,0-2.5,0.3-3.8,0.9c0-0.1-0.1-0.4-0.3-0.8s-0.2-0.7-0.3-0.7c0.6-0.3,1.2-0.6,2-0.8s1.6-0.3,2.4-0.3c1.6,0,2.8,0.3,3.5,1
				s1.1,1.9,1.1,3.6v8.5L112.9,452L112.9,452z M117.4,447.7v-8.6h2v8.6c0,0.6,0.1,1,0.2,1.4s0.4,0.7,0.7,0.9s0.6,0.4,1,0.5
				s0.8,0.1,1.3,0.1c1,0,1.8-0.2,2.4-0.7s0.8-1.2,0.8-2.3V439h2v8.6c0,0.7-0.1,1.2-0.3,1.8s-0.4,1-0.8,1.3s-0.7,0.6-1.1,0.9
				s-0.9,0.4-1.4,0.5s-1,0.2-1.6,0.2s-1.1-0.1-1.6-0.2s-1-0.3-1.4-0.5s-0.8-0.5-1.2-0.9s-0.6-0.8-0.8-1.3S117.4,448.4,117.4,447.7z
				 M136.5,439c0.4,0,0.7,0,1,0.1l-0.1,1.8c-0.4-0.1-0.7-0.1-0.9-0.1c-1.1,0-2,0.4-2.7,1.1s-1,1.7-1,2.8v7.2h-2c0-7.9,0-12.2,0-12.9
				h1.6l0.2,2.3c0.4-0.7,1-1.3,1.7-1.8S135.7,439,136.5,439z M143.2,450.7c0.9,0,1.7-0.3,2.5-0.8s1.2-1.2,1.4-2.1v-2.2
				c0,0-0.3,0-0.7,0.1s-0.7,0.1-0.8,0.1c-1.7,0.1-2.9,0.4-3.5,0.8s-1,1.1-1,2c0,0.7,0.2,1.2,0.6,1.6S142.4,450.7,143.2,450.7z
				 M147.4,452c-0.1-0.5-0.2-1-0.3-1.6c-0.7,0.7-1.4,1.2-2,1.5s-1.4,0.4-2.2,0.4c-1.2,0-2.2-0.3-2.9-0.9s-1.1-1.5-1.1-2.7
				c0-1.3,0.5-2.3,1.5-2.9s2.4-1,4.3-1.2c0.3,0,0.6-0.1,1.2-0.1s0.9-0.1,1.2-0.1v-1.1c0-0.9-0.2-1.6-0.6-2s-1.1-0.7-2-0.7
				c-1.3,0-2.5,0.3-3.8,0.9c0-0.1-0.1-0.4-0.3-0.8s-0.2-0.7-0.3-0.7c0.6-0.3,1.2-0.6,2-0.8s1.6-0.3,2.4-0.3c1.6,0,2.8,0.3,3.5,1
				s1.1,1.9,1.1,3.6v8.5L147.4,452L147.4,452z M152.3,452v-12.9h1.6l0.2,1.8c0.5-0.6,1.1-1.1,1.9-1.5s1.6-0.6,2.5-0.6
				c1.5,0,2.6,0.4,3.3,1.2s1.1,2.1,1.1,3.8v8h-2c0-5.2,0-7.9,0-8.3c0-1.1-0.3-1.9-0.7-2.4s-1.1-0.8-2.1-0.8s-1.8,0.2-2.5,0.7
				s-1.1,1.1-1.3,1.9c-0.1,0.5-0.1,1.1-0.1,1.8v7h-1.9V452z M170.3,452.2c-1.3,0-2.2-0.3-2.7-0.9s-0.8-1.6-0.8-3v-7.7h-1.9l0.1-1.3
				l1.8-0.2l0.7-2.9h1.3v3h3.6v1.5h-3.6v7.4c0,1,0.1,1.7,0.4,2.1s0.8,0.6,1.5,0.6c0.3,0,0.8-0.1,1.7-0.2l0.1,1.5
				C171.5,452.2,170.8,452.2,170.3,452.2z M66.4,492v-12.9H68l0.2,1.8c0.5-0.6,1.1-1.1,1.9-1.5s1.6-0.6,2.5-0.6
				c1.5,0,2.6,0.4,3.3,1.2s1.1,2.1,1.1,3.8v8h-2c0-5.2,0-7.9,0-8.3c0-1.1-0.3-1.9-0.7-2.4s-1.1-0.8-2.1-0.8s-1.8,0.2-2.5,0.7
				s-1.1,1.1-1.3,1.9c-0.1,0.5-0.1,1.1-0.1,1.8v7h-1.9V492z M84,490.7c0.9,0,1.7-0.3,2.5-0.8s1.2-1.2,1.4-2.1v-2.2
				c0,0-0.3,0-0.7,0.1s-0.7,0.1-0.8,0.1c-1.7,0.1-2.9,0.4-3.5,0.8s-1,1.1-1,2c0,0.7,0.2,1.2,0.6,1.6S83.3,490.7,84,490.7z M88.3,492
				c-0.1-0.5-0.2-1-0.3-1.6c-0.7,0.7-1.4,1.2-2,1.5s-1.4,0.4-2.2,0.4c-1.2,0-2.2-0.3-2.9-0.9s-1.1-1.5-1.1-2.7
				c0-1.3,0.5-2.3,1.5-2.9s2.4-1,4.3-1.2c0.3,0,0.6-0.1,1.2-0.1s0.9-0.1,1.2-0.1v-1.1c0-0.9-0.2-1.6-0.6-2s-1.1-0.7-2-0.7
				c-1.3,0-2.5,0.3-3.8,0.9c0-0.1-0.1-0.4-0.3-0.8S81.1,480,81,480c0.6-0.3,1.2-0.6,2-0.8s1.6-0.3,2.4-0.3c1.6,0,2.8,0.3,3.5,1
				s1.1,1.9,1.1,3.6v8.5L88.3,492L88.3,492z M109.5,492v-6.7c0-0.6,0-1.1,0-1.6s-0.1-0.9-0.2-1.3s-0.2-0.8-0.4-1s-0.4-0.5-0.7-0.6
				s-0.7-0.2-1.1-0.2c-0.9,0-1.6,0.2-2.2,0.7s-1,1.1-1.3,1.9c-0.1,0.6-0.1,1.2-0.1,1.8v7h-2v-6.9c0-0.6,0-1.1-0.1-1.5
				s-0.1-0.8-0.2-1.2s-0.3-0.7-0.4-1s-0.4-0.4-0.7-0.6s-0.7-0.2-1.1-0.2c-0.9,0-1.7,0.2-2.4,0.7s-1.1,1.1-1.3,1.9
				c-0.1,0.6-0.1,1.3-0.1,2v6.9h-2c0-8,0-12.3,0-12.9h1.6L95,481c0.4-0.6,0.9-1.1,1.7-1.5s1.5-0.6,2.4-0.6c0.5,0,0.9,0,1.3,0.1
				s0.7,0.2,1,0.4s0.5,0.3,0.7,0.5s0.4,0.4,0.5,0.6s0.2,0.4,0.3,0.6c0.9-1.5,2.4-2.3,4.3-2.3c1.4,0,2.5,0.4,3.1,1.2s1,2,1,3.6v8.3
				h-1.8V492z M119,480.5c-1,0-1.8,0.4-2.4,1.1s-1,1.7-1.1,2.9h6.8c0-1.3-0.3-2.3-0.9-2.9S120,480.5,119,480.5z M119.4,492.3
				c-1.9,0-3.3-0.6-4.4-1.8s-1.6-2.8-1.6-4.9c0-2,0.5-3.6,1.6-4.8s2.4-1.9,4.1-1.9c1.6,0,2.9,0.5,3.8,1.6s1.4,2.5,1.4,4.4
				c0,0.1,0,0.3,0,0.5s0,0.4,0,0.5h-8.8c0,1.5,0.4,2.6,1.1,3.4s1.7,1.2,2.9,1.2c1.4,0,2.7-0.4,4.1-1.1l0.3,1.6
				C122.5,491.9,121.1,492.3,119.4,492.3z"/>
			<path id="The-neighborhood-nam" class="st1" d="M220.9,452h-2v-15.5h-5.3v-1.8h12.7v1.8H221L220.9,452L220.9,452z M236.7,452
				v-7.8c0-1.3-0.2-2.2-0.6-2.8s-1.1-0.9-2.2-0.9c-1,0-1.8,0.2-2.5,0.7s-1.1,1.1-1.3,1.9c-0.1,0.6-0.1,1.2-0.1,2v6.9h-2v-17.8l2-0.1
				v5.2c0,0.4,0,1,0,1.7c1.1-1.4,2.6-2,4.4-2c2.9,0,4.3,1.7,4.3,5.1v8.1h-2V452z M246.1,440.5c-1,0-1.8,0.4-2.4,1.1s-1,1.7-1.1,2.9
				h6.8c0-1.3-0.3-2.3-0.9-2.9S247.1,440.5,246.1,440.5z M246.5,452.3c-1.9,0-3.3-0.6-4.4-1.8s-1.6-2.8-1.6-4.9c0-2,0.5-3.6,1.6-4.8
				s2.4-1.9,4.1-1.9c1.6,0,2.9,0.5,3.8,1.6s1.4,2.5,1.4,4.4c0,0.1,0,0.3,0,0.5s0,0.4,0,0.5h-8.8c0,1.5,0.4,2.6,1.1,3.4
				s1.7,1.2,2.9,1.2c1.4,0,2.7-0.4,4.1-1.1l0.3,1.6C249.6,451.9,248.1,452.3,246.5,452.3z M260,452v-12.9h1.6l0.2,1.8
				c0.5-0.6,1.1-1.1,1.9-1.5s1.6-0.6,2.5-0.6c1.5,0,2.6,0.4,3.3,1.2s1.1,2.1,1.1,3.8v8h-2c0-5.2,0-7.9,0-8.3c0-1.1-0.3-1.9-0.7-2.4
				s-1.1-0.8-2.1-0.8s-1.8,0.2-2.5,0.7s-1.1,1.1-1.3,1.9c-0.1,0.5-0.1,1.1-0.1,1.8v7H260V452z M278.9,440.5c-1,0-1.8,0.4-2.4,1.1
				s-1,1.7-1.1,2.9h6.8c0-1.3-0.3-2.3-0.9-2.9S279.9,440.5,278.9,440.5z M279.3,452.3c-1.9,0-3.3-0.6-4.4-1.8s-1.6-2.8-1.6-4.9
				c0-2,0.5-3.6,1.6-4.8s2.4-1.9,4.1-1.9c1.6,0,2.9,0.5,3.8,1.6s1.4,2.5,1.4,4.4c0,0.1,0,0.3,0,0.5s0,0.4,0,0.5h-8.8
				c0,1.5,0.4,2.6,1.1,3.4s1.7,1.2,2.9,1.2c1.4,0,2.7-0.4,4.1-1.1l0.3,1.6C282.5,451.9,281,452.3,279.3,452.3z M289.2,439.1V452h-2
				v-12.9H289.2z M289.2,434.5v2.3h-2v-2.3H289.2z M297.8,450.3c0.7,0,1.2-0.1,1.7-0.4s0.9-0.6,1.2-1s0.5-0.9,0.6-1.4
				s0.2-1.1,0.2-1.7V445c0-0.6-0.1-1.2-0.2-1.7s-0.4-1-0.7-1.4s-0.7-0.7-1.2-1s-1.1-0.4-1.7-0.4c-0.5,0-1,0.1-1.5,0.3
				s-0.8,0.5-1.1,0.8s-0.5,0.7-0.7,1.2s-0.3,0.9-0.4,1.3s-0.1,0.9-0.1,1.4s0,0.9,0.1,1.3s0.2,0.9,0.4,1.3s0.4,0.8,0.7,1.1
				s0.7,0.6,1.1,0.8S297.3,450.3,297.8,450.3z M294.8,457.9l-0.2-1.8h2.4c0.7,0,1.2,0,1.7-0.1s0.9-0.2,1.2-0.5s0.6-0.5,0.8-0.7
				s0.4-0.6,0.5-1s0.2-0.8,0.2-1.2s0.1-0.9,0.1-1.5V450c-0.5,0.7-1,1.2-1.6,1.6s-1.4,0.5-2.4,0.5c-0.7,0-1.4-0.1-2-0.4
				s-1.1-0.6-1.6-1s-0.8-0.9-1.1-1.5s-0.5-1.1-0.7-1.7s-0.2-1.2-0.2-1.8c0-0.9,0.1-1.8,0.3-2.6s0.6-1.5,1-2.1s1-1.1,1.8-1.5
				s1.6-0.5,2.5-0.5c0.8,0,1.6,0.2,2.2,0.5s1.2,0.8,1.7,1.5v-1.7h1.9v11.9c0,0.5,0,1,0,1.4s-0.1,0.9-0.2,1.4s-0.2,0.9-0.4,1.3
				s-0.4,0.7-0.8,1.1s-0.7,0.7-1.2,0.9s-1,0.4-1.7,0.5s-1.4,0.2-2.2,0.2L294.8,457.9L294.8,457.9z M315.4,452v-7.8
				c0-1.3-0.2-2.2-0.6-2.8s-1.1-0.9-2.2-0.9c-1,0-1.8,0.2-2.5,0.7s-1.1,1.1-1.3,1.9c-0.1,0.6-0.1,1.2-0.1,2v6.9h-2v-17.8l2-0.1v5.2
				c0,0.4,0,1,0,1.7c1.1-1.4,2.6-2,4.4-2c2.9,0,4.3,1.7,4.3,5.1v8.1h-2V452z M325.6,440.5c-1.2,0-2.2,0.4-2.9,1.3s-1,2.1-1,3.8
				c0,3.4,1.3,5.1,3.8,5.1c0.6,0,1.2-0.1,1.7-0.4s0.9-0.6,1.1-1.1s0.5-1,0.6-1.6s0.2-1.3,0.2-2c0-1-0.1-1.8-0.3-2.6
				s-0.6-1.3-1.2-1.8S326.5,440.5,325.6,440.5z M325.8,438.9c1.1,0,2.1,0.3,3,0.9s1.4,1.4,1.9,2.4s0.6,2.1,0.6,3.4s-0.2,2.5-0.6,3.5
				s-1,1.8-1.9,2.4s-1.8,0.9-3,0.9c-0.9,0-1.6-0.2-2.3-0.6s-1.3-0.9-1.8-1.5l-0.2,1.8h-1.7v-17.8l2-0.1v4.3c0,1,0,1.9,0,2.7
				c0.5-0.6,1-1.2,1.8-1.5S325,438.9,325.8,438.9z M335.5,445.6c0,1.5,0.3,2.7,1,3.7s1.7,1.4,3,1.4s2.2-0.5,2.9-1.4s1-2.1,1-3.7
				s-0.3-2.8-1-3.7s-1.6-1.4-2.9-1.4s-2.3,0.5-2.9,1.4S335.5,444.1,335.5,445.6z M345.3,445.6c0,2-0.5,3.6-1.6,4.8s-2.5,1.9-4.4,1.9
				c-1.8,0-3.2-0.6-4.3-1.9s-1.6-2.9-1.6-4.8c0-2,0.5-3.6,1.6-4.9s2.5-1.9,4.4-1.9c1.8,0,3.3,0.6,4.3,1.9S345.3,443.6,345.3,445.6z
				 M353.9,439c0.4,0,0.7,0,1,0.1l-0.1,1.8c-0.4-0.1-0.7-0.1-0.9-0.1c-1.1,0-2,0.4-2.7,1.1s-1,1.7-1,2.8v7.2h-2c0-7.9,0-12.2,0-12.9
				h1.6l0.2,2.3c0.4-0.7,1-1.3,1.7-1.8S353.1,439,353.9,439z M365.5,452v-7.8c0-1.3-0.2-2.2-0.6-2.8s-1.1-0.9-2.2-0.9
				c-1,0-1.8,0.2-2.5,0.7s-1.1,1.1-1.3,1.9c-0.1,0.6-0.1,1.2-0.1,2v6.9h-2v-17.8l2-0.1v5.2c0,0.4,0,1,0,1.7c1.1-1.4,2.6-2,4.4-2
				c2.9,0,4.3,1.7,4.3,5.1v8.1h-2V452z M371.3,445.6c0,1.5,0.3,2.7,1,3.7s1.7,1.4,3,1.4s2.2-0.5,2.9-1.4s1-2.1,1-3.7s-0.3-2.8-1-3.7
				s-1.6-1.4-2.9-1.4s-2.3,0.5-2.9,1.4S371.3,444.1,371.3,445.6z M381.2,445.6c0,2-0.5,3.6-1.6,4.8s-2.5,1.9-4.4,1.9
				c-1.8,0-3.2-0.6-4.3-1.9s-1.6-2.9-1.6-4.8c0-2,0.5-3.6,1.6-4.9s2.5-1.9,4.4-1.9c1.8,0,3.3,0.6,4.3,1.9S381.2,443.6,381.2,445.6z
				 M385.4,445.6c0,1.5,0.3,2.7,1,3.7s1.7,1.4,3,1.4s2.2-0.5,2.9-1.4s1-2.1,1-3.7s-0.3-2.8-1-3.7s-1.6-1.4-2.9-1.4s-2.3,0.5-2.9,1.4
				S385.4,444.1,385.4,445.6z M395.3,445.6c0,2-0.5,3.6-1.6,4.8s-2.5,1.9-4.4,1.9c-1.8,0-3.2-0.6-4.3-1.9s-1.6-2.9-1.6-4.8
				c0-2,0.5-3.6,1.6-4.9s2.5-1.9,4.4-1.9c1.8,0,3.3,0.6,4.3,1.9S395.3,443.6,395.3,445.6z M403,450.6c1.3,0,2.2-0.4,2.9-1.2
				s0.9-2,0.9-3.6c0-1.7-0.3-3-0.9-3.9s-1.6-1.3-2.9-1.3c-0.6,0-1.1,0.1-1.6,0.4s-0.8,0.6-1.1,1.1s-0.5,1-0.6,1.6s-0.2,1.3-0.2,2
				c0,1,0.1,1.9,0.4,2.6s0.6,1.3,1.2,1.8S402.2,450.6,403,450.6z M406.9,450.1c-0.4,0.6-1,1.2-1.7,1.5s-1.5,0.6-2.4,0.6
				c-1.7,0-3-0.6-4-1.8s-1.4-2.8-1.4-4.9c0-2,0.5-3.6,1.5-4.8s2.3-1.8,3.9-1.8c0.9,0,1.7,0.2,2.4,0.6s1.3,0.9,1.7,1.5v-1.1v-5.7
				l1.9-0.1v18h-1.7L406.9,450.1z M283.4,492v-12.9h1.6l0.2,1.8c0.5-0.6,1.1-1.1,1.9-1.5s1.6-0.6,2.5-0.6c1.5,0,2.6,0.4,3.3,1.2
				s1.1,2.1,1.1,3.8v8h-2c0-5.2,0-7.9,0-8.3c0-1.1-0.3-1.9-0.7-2.4s-1.1-0.8-2.1-0.8s-1.8,0.2-2.5,0.7s-1.1,1.1-1.3,1.9
				c-0.1,0.5-0.1,1.1-0.1,1.8v7h-1.9V492z M301,490.7c0.9,0,1.7-0.3,2.5-0.8s1.2-1.2,1.4-2.1v-2.2c0,0-0.3,0-0.7,0.1
				s-0.7,0.1-0.8,0.1c-1.7,0.1-2.9,0.4-3.5,0.8s-1,1.1-1,2c0,0.7,0.2,1.2,0.6,1.6S300.3,490.7,301,490.7z M305.3,492
				c-0.1-0.5-0.2-1-0.3-1.6c-0.7,0.7-1.4,1.2-2,1.5s-1.4,0.4-2.2,0.4c-1.2,0-2.2-0.3-2.9-0.9s-1.1-1.5-1.1-2.7
				c0-1.3,0.5-2.3,1.5-2.9s2.4-1,4.3-1.2c0.3,0,0.6-0.1,1.2-0.1s0.9-0.1,1.2-0.1v-1.1c0-0.9-0.2-1.6-0.6-2s-1.1-0.7-2-0.7
				c-1.3,0-2.5,0.3-3.8,0.9c0-0.1-0.1-0.4-0.3-0.8s-0.2-0.7-0.3-0.7c0.6-0.3,1.2-0.6,2-0.8s1.6-0.3,2.4-0.3c1.6,0,2.8,0.3,3.5,1
				s1.1,1.9,1.1,3.6v8.5L305.3,492L305.3,492z M326.5,492v-6.7c0-0.6,0-1.1,0-1.6s-0.1-0.9-0.2-1.3s-0.2-0.8-0.4-1s-0.4-0.5-0.7-0.6
				s-0.7-0.2-1.1-0.2c-0.9,0-1.6,0.2-2.2,0.7s-1,1.1-1.3,1.9c-0.1,0.6-0.1,1.2-0.1,1.8v7h-2v-6.9c0-0.6,0-1.1-0.1-1.5
				s-0.1-0.8-0.2-1.2s-0.3-0.7-0.4-1s-0.4-0.4-0.7-0.6s-0.7-0.2-1.1-0.2c-0.9,0-1.7,0.2-2.4,0.7s-1.1,1.1-1.3,1.9
				c-0.1,0.6-0.1,1.3-0.1,2v6.9h-2c0-8,0-12.3,0-12.9h1.6l0.2,1.8c0.4-0.6,0.9-1.1,1.7-1.5s1.5-0.6,2.4-0.6c0.5,0,0.9,0,1.3,0.1
				s0.7,0.2,1,0.4s0.5,0.3,0.7,0.5s0.4,0.4,0.5,0.6s0.2,0.4,0.3,0.6c0.9-1.5,2.4-2.3,4.3-2.3c1.4,0,2.5,0.4,3.1,1.2s1,2,1,3.6v8.3
				h-1.8V492z M336,480.5c-1,0-1.8,0.4-2.4,1.1s-1,1.7-1.1,2.9h6.8c0-1.3-0.3-2.3-0.9-2.9S337,480.5,336,480.5z M336.4,492.3
				c-1.9,0-3.3-0.6-4.4-1.8s-1.6-2.8-1.6-4.9c0-2,0.5-3.6,1.6-4.8s2.4-1.9,4.1-1.9c1.6,0,2.9,0.5,3.8,1.6s1.4,2.5,1.4,4.4
				c0,0.1,0,0.3,0,0.5s0,0.4,0,0.5h-8.8c0,1.5,0.4,2.6,1.1,3.4s1.7,1.2,2.9,1.2c1.4,0,2.7-0.4,4.1-1.1l0.3,1.6
				C339.5,491.9,338.1,492.3,336.4,492.3z"/>
			<path id="The-cuisine-type" class="st1" d="M464.9,452h-2v-15.5h-5.3v-1.8h12.7v1.8H465V452H464.9z M480.7,452v-7.8
				c0-1.3-0.2-2.2-0.6-2.8s-1.1-0.9-2.2-0.9c-1,0-1.8,0.2-2.5,0.7s-1.1,1.1-1.3,1.9c-0.1,0.6-0.1,1.2-0.1,2v6.9h-2v-17.8l2-0.1v5.2
				c0,0.4,0,1,0,1.7c1.1-1.4,2.6-2,4.4-2c2.9,0,4.3,1.7,4.3,5.1v8.1h-2V452z M490.1,440.5c-1,0-1.8,0.4-2.4,1.1s-1,1.7-1.1,2.9h6.8
				c0-1.3-0.3-2.3-0.9-2.9S491.1,440.5,490.1,440.5z M490.5,452.3c-1.9,0-3.3-0.6-4.4-1.8s-1.6-2.8-1.6-4.9c0-2,0.5-3.6,1.6-4.8
				s2.4-1.9,4.1-1.9c1.6,0,2.9,0.5,3.8,1.6s1.4,2.5,1.4,4.4c0,0.1,0,0.3,0,0.5s0,0.4,0,0.5h-8.8c0,1.5,0.4,2.6,1.1,3.4
				s1.7,1.2,2.9,1.2c1.4,0,2.7-0.4,4.1-1.1l0.3,1.6C493.6,451.9,492.1,452.3,490.5,452.3z M509.4,452.3c-1.9,0-3.4-0.6-4.4-1.8
				s-1.6-2.8-1.6-4.8s0.6-3.6,1.6-4.9s2.6-1.9,4.4-1.9c0.7,0,1.3,0.1,1.9,0.2s1.1,0.4,1.5,0.6l-0.5,1.5c-0.9-0.5-1.9-0.7-2.9-0.7
				c-1.2,0-2.2,0.5-2.9,1.4s-1.1,2.1-1.1,3.7c0,1.5,0.4,2.7,1.1,3.6s1.7,1.3,3,1.3c1,0,2-0.3,3.1-0.8l0.2,1.6
				C511.9,452,510.8,452.3,509.4,452.3z M514.9,447.7v-8.6h2v8.6c0,0.6,0.1,1,0.2,1.4s0.4,0.7,0.7,0.9s0.6,0.4,1,0.5
				s0.8,0.1,1.3,0.1c1,0,1.8-0.2,2.4-0.7s0.8-1.2,0.8-2.3V439h2v8.6c0,0.7-0.1,1.2-0.3,1.8s-0.4,1-0.8,1.3s-0.7,0.6-1.1,0.9
				s-0.9,0.4-1.4,0.5s-1,0.2-1.6,0.2s-1.1-0.1-1.6-0.2s-1-0.3-1.4-0.5s-0.8-0.5-1.2-0.9s-0.6-0.8-0.8-1.3S514.9,448.4,514.9,447.7z
				 M530.5,439.1V452h-2v-12.9H530.5z M530.5,434.5v2.3h-2v-2.3H530.5z M538.1,452.3c-0.9,0-1.7-0.1-2.4-0.3s-1.3-0.4-1.8-0.7
				l0.2-1.7c1.3,0.7,2.6,1,3.8,1c1.9,0,2.9-0.7,2.9-2c0-0.6-0.2-1-0.6-1.3s-1.2-0.7-2.4-1.1l-1-0.3c-1.1-0.4-1.9-0.8-2.4-1.4
				s-0.7-1.2-0.7-2.1c0-1,0.4-1.8,1.2-2.5s1.9-1,3.3-1c1.5,0,2.8,0.3,4,0.8l-0.6,1.5c-1.2-0.5-2.3-0.8-3.4-0.8
				c-0.8,0-1.5,0.2-1.9,0.5s-0.7,0.8-0.7,1.4c0,0.5,0.2,0.9,0.5,1.1s1,0.6,2,0.9c0.3,0.1,0.6,0.2,1,0.3c1.3,0.4,2.2,0.9,2.8,1.5
				s0.8,1.3,0.8,2.3c0,1.2-0.4,2.1-1.3,2.8S539.5,452.3,538.1,452.3z M547.7,439.1V452h-2v-12.9H547.7z M547.7,434.5v2.3h-2v-2.3
				H547.7z M551.4,452v-12.9h1.6l0.2,1.8c0.5-0.6,1.1-1.1,1.9-1.5s1.6-0.6,2.5-0.6c1.5,0,2.6,0.4,3.3,1.2s1.1,2.1,1.1,3.8v8h-2
				c0-5.2,0-7.9,0-8.3c0-1.1-0.3-1.9-0.7-2.4s-1.1-0.8-2.1-0.8s-1.8,0.2-2.5,0.7s-1.1,1.1-1.3,1.9c-0.1,0.5-0.1,1.1-0.1,1.8v7h-1.9
				V452z M570.3,440.5c-1,0-1.8,0.4-2.4,1.1s-1,1.7-1.1,2.9h6.8c0-1.3-0.3-2.3-0.9-2.9S571.3,440.5,570.3,440.5z M570.7,452.3
				c-1.9,0-3.3-0.6-4.4-1.8s-1.6-2.8-1.6-4.9c0-2,0.5-3.6,1.6-4.8s2.4-1.9,4.1-1.9c1.6,0,2.9,0.5,3.8,1.6s1.4,2.5,1.4,4.4
				c0,0.1,0,0.3,0,0.5s0,0.4,0,0.5h-8.8c0,1.5,0.4,2.6,1.1,3.4s1.7,1.2,2.9,1.2c1.4,0,2.7-0.4,4.1-1.1l0.3,1.6
				C573.8,451.9,572.4,452.3,570.7,452.3z M499.1,492.2c-1.3,0-2.2-0.3-2.7-0.9s-0.8-1.6-0.8-3v-7.7h-1.9l0.1-1.3l1.8-0.2l0.7-2.9
				h1.3v3h3.6v1.5h-3.6v7.4c0,1,0.1,1.7,0.4,2.1s0.8,0.6,1.5,0.6c0.3,0,0.8-0.1,1.7-0.2l0.1,1.5
				C500.3,492.2,499.6,492.2,499.1,492.2z M501.7,479.1h2.1l4.1,10.7l3.6-10.7h2.1c-3.5,9.5-5.3,14.5-5.4,14.8c-0.5,1.4-1.2,2.3-2,3
				s-1.8,0.9-3,0.9c-0.4,0-0.8,0-1.2-0.1l-0.1-1.7c0.4,0,0.8,0,1,0c0.9,0,1.6-0.2,2-0.5s0.9-0.9,1.2-1.8c0.3-0.8,0.6-1.5,0.7-1.9
				L501.7,479.1z M515.3,497.6v-18.4h1.7l0.2,1.7c1.1-1.3,2.5-2,4.1-2c1.2,0,2.2,0.3,3,0.9s1.4,1.4,1.8,2.4s0.6,2.2,0.6,3.5
				s-0.2,2.4-0.6,3.4s-1,1.8-1.9,2.4s-1.8,0.9-2.9,0.9c-0.8,0-1.6-0.2-2.3-0.6s-1.3-0.9-1.7-1.5c0,0.8,0.1,1.7,0.1,2.5v4.7
				L515.3,497.6z M521,490.6c0.6,0,1.1-0.1,1.6-0.4s0.8-0.6,1.1-1.1s0.5-1,0.7-1.6s0.2-1.2,0.2-1.9c0-1.5-0.3-2.7-0.9-3.6
				s-1.5-1.4-2.7-1.4c-2.5,0-3.7,1.6-3.7,4.8c0,1.7,0.3,3.1,0.9,3.9S519.7,490.6,521,490.6z M534.4,480.5c-1,0-1.8,0.4-2.4,1.1
				s-1,1.7-1.1,2.9h6.8c0-1.3-0.3-2.3-0.9-2.9S535.4,480.5,534.4,480.5z M534.8,492.3c-1.9,0-3.3-0.6-4.4-1.8s-1.6-2.8-1.6-4.9
				c0-2,0.5-3.6,1.6-4.8s2.4-1.9,4.1-1.9c1.6,0,2.9,0.5,3.8,1.6s1.4,2.5,1.4,4.4c0,0.1,0,0.3,0,0.5s0,0.4,0,0.5h-8.8
				c0,1.5,0.4,2.6,1.1,3.4s1.7,1.2,2.9,1.2c1.4,0,2.7-0.4,4.1-1.1l0.3,1.6C538,491.9,536.5,492.3,534.8,492.3z"/>
			<path id="The-price-range" class="st1" d="M823.4,452h-2v-15.5h-5.3v-1.8h12.7v1.8h-5.3V452H823.4z M839.2,452v-7.8
				c0-1.3-0.2-2.2-0.6-2.8s-1.1-0.9-2.2-0.9c-1,0-1.8,0.2-2.5,0.7s-1.1,1.1-1.3,1.9c-0.1,0.6-0.1,1.2-0.1,2v6.9h-2v-17.8l2-0.1v5.2
				c0,0.4,0,1,0,1.7c1.1-1.4,2.6-2,4.4-2c2.9,0,4.3,1.7,4.3,5.1v8.1h-2V452z M848.6,440.5c-1,0-1.8,0.4-2.4,1.1s-1,1.7-1.1,2.9h6.8
				c0-1.3-0.3-2.3-0.9-2.9S849.6,440.5,848.6,440.5z M849,452.3c-1.9,0-3.3-0.6-4.4-1.8s-1.6-2.8-1.6-4.9c0-2,0.5-3.6,1.6-4.8
				s2.4-1.9,4.1-1.9c1.6,0,2.9,0.5,3.8,1.6s1.4,2.5,1.4,4.4c0,0.1,0,0.3,0,0.5s0,0.4,0,0.5H845c0,1.5,0.4,2.6,1.1,3.4
				s1.7,1.2,2.9,1.2c1.4,0,2.7-0.4,4.1-1.1l0.3,1.6C852.2,451.9,850.7,452.3,849,452.3z M862.6,457.6v-18.4h1.7l0.2,1.7
				c1.1-1.3,2.5-2,4.1-2c1.2,0,2.2,0.3,3,0.9s1.4,1.4,1.8,2.4s0.6,2.2,0.6,3.5s-0.2,2.4-0.6,3.4s-1,1.8-1.9,2.4s-1.8,0.9-2.9,0.9
				c-0.8,0-1.6-0.2-2.3-0.6s-1.3-0.9-1.7-1.5c0,0.8,0.1,1.7,0.1,2.5v4.7L862.6,457.6z M868.2,450.6c0.6,0,1.1-0.1,1.6-0.4
				s0.8-0.6,1.1-1.1s0.5-1,0.7-1.6s0.2-1.2,0.2-1.9c0-1.5-0.3-2.7-0.9-3.6s-1.5-1.4-2.7-1.4c-2.5,0-3.7,1.6-3.7,4.8
				c0,1.7,0.3,3.1,0.9,3.9S866.9,450.6,868.2,450.6z M882.4,439c0.4,0,0.7,0,1,0.1l-0.1,1.8c-0.4-0.1-0.7-0.1-0.9-0.1
				c-1.1,0-2,0.4-2.7,1.1s-1,1.7-1,2.8v7.2h-2c0-7.9,0-12.2,0-12.9h1.6l0.2,2.3c0.4-0.7,1-1.3,1.7-1.8S881.6,439,882.4,439z
				 M887.7,439.1V452h-2v-12.9H887.7z M887.7,434.5v2.3h-2v-2.3H887.7z M896.8,452.3c-1.9,0-3.4-0.6-4.4-1.8s-1.6-2.8-1.6-4.8
				s0.6-3.6,1.6-4.9s2.6-1.9,4.4-1.9c0.7,0,1.3,0.1,1.9,0.2s1.1,0.4,1.5,0.6l-0.5,1.5c-0.9-0.5-1.9-0.7-2.9-0.7
				c-1.2,0-2.2,0.5-2.9,1.4s-1.1,2.1-1.1,3.7c0,1.5,0.4,2.7,1.1,3.6s1.7,1.3,3,1.3c1,0,2-0.3,3.1-0.8l0.2,1.6
				C899.3,452,898.2,452.3,896.8,452.3z M907.8,440.5c-1,0-1.8,0.4-2.4,1.1s-1,1.7-1.1,2.9h6.8c0-1.3-0.3-2.3-0.9-2.9
				S908.8,440.5,907.8,440.5z M908.1,452.3c-1.9,0-3.3-0.6-4.4-1.8s-1.6-2.8-1.6-4.9c0-2,0.5-3.6,1.6-4.8s2.4-1.9,4.1-1.9
				c1.6,0,2.9,0.5,3.8,1.6s1.4,2.5,1.4,4.4c0,0.1,0,0.3,0,0.5s0,0.4,0,0.5h-8.8c0,1.5,0.4,2.6,1.1,3.4s1.7,1.2,2.9,1.2
				c1.4,0,2.7-0.4,4.1-1.1l0.3,1.6C911.3,451.9,909.8,452.3,908.1,452.3z M841.3,479c0.4,0,0.7,0,1,0.1l-0.1,1.8
				c-0.4-0.1-0.7-0.1-0.9-0.1c-1.1,0-2,0.4-2.7,1.1s-1,1.7-1,2.8v7.2h-2c0-7.9,0-12.2,0-12.9h1.6l0.2,2.3c0.4-0.7,1-1.3,1.7-1.8
				S840.5,479,841.3,479z M847.9,490.7c0.9,0,1.7-0.3,2.5-0.8s1.2-1.2,1.4-2.1v-2.2c0,0-0.3,0-0.7,0.1s-0.7,0.1-0.8,0.1
				c-1.7,0.1-2.9,0.4-3.5,0.8s-1,1.1-1,2c0,0.7,0.2,1.2,0.6,1.6S847.2,490.7,847.9,490.7z M852.2,492c-0.1-0.5-0.2-1-0.3-1.6
				c-0.7,0.7-1.4,1.2-2,1.5s-1.4,0.4-2.2,0.4c-1.2,0-2.2-0.3-2.9-0.9s-1.1-1.5-1.1-2.7c0-1.3,0.5-2.3,1.5-2.9s2.4-1,4.3-1.2
				c0.3,0,0.6-0.1,1.2-0.1s0.9-0.1,1.2-0.1v-1.1c0-0.9-0.2-1.6-0.6-2s-1.1-0.7-2-0.7c-1.3,0-2.5,0.3-3.8,0.9c0-0.1-0.1-0.4-0.3-0.8
				s-0.2-0.7-0.3-0.7c0.6-0.3,1.2-0.6,2-0.8s1.6-0.3,2.4-0.3c1.6,0,2.8,0.3,3.5,1s1.1,1.9,1.1,3.6v8.5L852.2,492L852.2,492z
				 M857.1,492v-12.9h1.6l0.2,1.8c0.5-0.6,1.1-1.1,1.9-1.5s1.6-0.6,2.5-0.6c1.5,0,2.6,0.4,3.3,1.2s1.1,2.1,1.1,3.8v8h-2
				c0-5.2,0-7.9,0-8.3c0-1.1-0.3-1.9-0.7-2.4s-1.1-0.8-2.1-0.8s-1.8,0.2-2.5,0.7s-1.1,1.1-1.3,1.9c-0.1,0.5-0.1,1.1-0.1,1.8v7h-1.9
				V492z M876,490.3c0.7,0,1.2-0.1,1.7-0.4s0.9-0.6,1.2-1s0.5-0.9,0.6-1.4s0.2-1.1,0.2-1.7V485c0-0.6-0.1-1.2-0.2-1.7
				s-0.4-1-0.7-1.4s-0.7-0.7-1.2-1s-1.1-0.4-1.7-0.4c-0.5,0-1,0.1-1.5,0.3s-0.8,0.5-1.1,0.8s-0.5,0.7-0.7,1.2s-0.3,0.9-0.4,1.3
				s-0.1,0.9-0.1,1.4s0,0.9,0.1,1.3s0.2,0.9,0.4,1.3s0.4,0.8,0.7,1.1s0.7,0.6,1.1,0.8S875.4,490.3,876,490.3z M873,497.9l-0.2-1.8
				h2.4c0.7,0,1.2,0,1.7-0.1s0.9-0.2,1.2-0.5s0.6-0.5,0.8-0.7s0.4-0.6,0.5-1s0.2-0.8,0.2-1.2s0.1-0.9,0.1-1.5V490
				c-0.5,0.7-1,1.2-1.6,1.6s-1.4,0.5-2.4,0.5c-0.7,0-1.4-0.1-2-0.4s-1.1-0.6-1.6-1s-0.8-0.9-1.1-1.5s-0.5-1.1-0.7-1.7
				s-0.2-1.2-0.2-1.8c0-0.9,0.1-1.8,0.3-2.6s0.6-1.5,1-2.1s1-1.1,1.8-1.5s1.6-0.5,2.5-0.5c0.8,0,1.6,0.2,2.2,0.5s1.2,0.8,1.7,1.5
				v-1.7h1.9v11.9c0,0.5,0,1,0,1.4s-0.1,0.9-0.2,1.4s-0.2,0.9-0.4,1.3s-0.4,0.7-0.8,1.1s-0.7,0.7-1.2,0.9s-1,0.4-1.7,0.5
				s-1.4,0.2-2.2,0.2L873,497.9L873,497.9z M889.9,480.5c-1,0-1.8,0.4-2.4,1.1s-1,1.7-1.1,2.9h6.8c0-1.3-0.3-2.3-0.9-2.9
				S890.9,480.5,889.9,480.5z M890.3,492.3c-1.9,0-3.3-0.6-4.4-1.8s-1.6-2.8-1.6-4.9c0-2,0.5-3.6,1.6-4.8s2.4-1.9,4.1-1.9
				c1.6,0,2.9,0.5,3.8,1.6s1.4,2.5,1.4,4.4c0,0.1,0,0.3,0,0.5s0,0.4,0,0.5h-8.8c0,1.5,0.4,2.6,1.1,3.4s1.7,1.2,2.9,1.2
				c1.4,0,2.7-0.4,4.1-1.1l0.3,1.6C893.5,491.9,892,492.3,890.3,492.3z"/>
			<path id="The-health-inspectio" class="st1" d="M986.1,452h-2v-15.5h-5.3v-1.8h12.7v1.8h-5.3V452H986.1z M1001.8,452v-7.8
				c0-1.3-0.2-2.2-0.6-2.8s-1.1-0.9-2.2-0.9c-1,0-1.8,0.2-2.5,0.7s-1.1,1.1-1.3,1.9c-0.1,0.6-0.1,1.2-0.1,2v6.9h-2v-17.8l2-0.1v5.2
				c0,0.4,0,1,0,1.7c1.1-1.4,2.6-2,4.4-2c2.9,0,4.3,1.7,4.3,5.1v8.1h-2V452z M1011.2,440.5c-1,0-1.8,0.4-2.4,1.1s-1,1.7-1.1,2.9h6.8
				c0-1.3-0.3-2.3-0.9-2.9S1012.2,440.5,1011.2,440.5z M1011.6,452.3c-1.9,0-3.3-0.6-4.4-1.8s-1.6-2.8-1.6-4.9c0-2,0.5-3.6,1.6-4.8
				s2.4-1.9,4.1-1.9c1.6,0,2.9,0.5,3.8,1.6s1.4,2.5,1.4,4.4c0,0.1,0,0.3,0,0.5s0,0.4,0,0.5h-8.8c0,1.5,0.4,2.6,1.1,3.4
				s1.7,1.2,2.9,1.2c1.4,0,2.7-0.4,4.1-1.1l0.3,1.6C1014.8,451.9,1013.3,452.3,1011.6,452.3z M1033.8,452v-7.8
				c0-1.3-0.2-2.2-0.6-2.8s-1.1-0.9-2.2-0.9c-1,0-1.8,0.2-2.5,0.7s-1.1,1.1-1.3,1.9c-0.1,0.6-0.1,1.2-0.1,2v6.9h-2v-17.8l2-0.1v5.2
				c0,0.4,0,1,0,1.7c1.1-1.4,2.6-2,4.4-2c2.9,0,4.3,1.7,4.3,5.1v8.1h-2V452z M1043.2,440.5c-1,0-1.8,0.4-2.4,1.1s-1,1.7-1.1,2.9h6.8
				c0-1.3-0.3-2.3-0.9-2.9S1044.2,440.5,1043.2,440.5z M1043.6,452.3c-1.9,0-3.3-0.6-4.4-1.8s-1.6-2.8-1.6-4.9c0-2,0.5-3.6,1.6-4.8
				s2.4-1.9,4.1-1.9c1.6,0,2.9,0.5,3.8,1.6s1.4,2.5,1.4,4.4c0,0.1,0,0.3,0,0.5s0,0.4,0,0.5h-8.8c0,1.5,0.4,2.6,1.1,3.4
				s1.7,1.2,2.9,1.2c1.4,0,2.7-0.4,4.1-1.1l0.3,1.6C1046.8,451.9,1045.3,452.3,1043.6,452.3z M1054.9,450.7c0.9,0,1.7-0.3,2.5-0.8
				s1.2-1.2,1.4-2.1v-2.2c0,0-0.3,0-0.7,0.1s-0.7,0.1-0.8,0.1c-1.7,0.1-2.9,0.4-3.5,0.8s-1,1.1-1,2c0,0.7,0.2,1.2,0.6,1.6
				S1054.2,450.7,1054.9,450.7z M1059.2,452c-0.1-0.5-0.2-1-0.3-1.6c-0.7,0.7-1.4,1.2-2,1.5s-1.4,0.4-2.2,0.4
				c-1.2,0-2.2-0.3-2.9-0.9s-1.1-1.5-1.1-2.7c0-1.3,0.5-2.3,1.5-2.9s2.4-1,4.3-1.2c0.3,0,0.6-0.1,1.2-0.1s0.9-0.1,1.2-0.1v-1.1
				c0-0.9-0.2-1.6-0.6-2s-1.1-0.7-2-0.7c-1.3,0-2.5,0.3-3.8,0.9c0-0.1-0.1-0.4-0.3-0.8s-0.2-0.7-0.3-0.7c0.6-0.3,1.2-0.6,2-0.8
				s1.6-0.3,2.4-0.3c1.6,0,2.8,0.3,3.5,1s1.1,1.9,1.1,3.6v8.5L1059.2,452L1059.2,452z M1067.5,452.2c-1.2,0-2.1-0.3-2.7-1
				s-0.8-1.8-0.8-3.5v-13.6l1.9-0.1v12.9c0,0.5,0,1,0,1.3s0,0.6,0.1,0.9s0.1,0.5,0.2,0.7s0.2,0.3,0.3,0.4s0.3,0.2,0.5,0.3
				s0.5,0.1,0.8,0.1c0.2,0,0.7,0,1.5-0.1l0.1,1.6C1068.7,452.2,1068.1,452.2,1067.5,452.2z M1074.8,452.2c-1.3,0-2.2-0.3-2.7-0.9
				s-0.8-1.6-0.8-3v-7.7h-1.9l0.1-1.3l1.8-0.2l0.7-2.9h1.3v3h3.6v1.5h-3.6v7.4c0,1,0.1,1.7,0.4,2.1s0.8,0.6,1.5,0.6
				c0.3,0,0.8-0.1,1.7-0.2l0.1,1.5C1076,452.2,1075.3,452.2,1074.8,452.2z M1087.7,452v-7.8c0-1.3-0.2-2.2-0.6-2.8s-1.1-0.9-2.2-0.9
				c-1,0-1.8,0.2-2.5,0.7s-1.1,1.1-1.3,1.9c-0.1,0.6-0.1,1.2-0.1,2v6.9h-2v-17.8l2-0.1v5.2c0,0.4,0,1,0,1.7c1.1-1.4,2.6-2,4.4-2
				c2.9,0,4.3,1.7,4.3,5.1v8.1h-2V452z M982.6,479.1V492h-2v-12.9H982.6z M982.6,474.5v2.3h-2v-2.3H982.6z M986.3,492v-12.9h1.6
				l0.2,1.8c0.5-0.6,1.1-1.1,1.9-1.5s1.6-0.6,2.5-0.6c1.5,0,2.6,0.4,3.3,1.2s1.1,2.1,1.1,3.8v8h-2c0-5.2,0-7.9,0-8.3
				c0-1.1-0.3-1.9-0.7-2.4s-1.1-0.8-2.1-0.8s-1.8,0.2-2.5,0.7s-1.1,1.1-1.3,1.9c-0.1,0.5-0.1,1.1-0.1,1.8v7h-1.9V492z M1004,492.3
				c-0.9,0-1.7-0.1-2.4-0.3s-1.3-0.4-1.8-0.7l0.2-1.7c1.3,0.7,2.6,1,3.8,1c1.9,0,2.9-0.7,2.9-2c0-0.6-0.2-1-0.6-1.3
				s-1.2-0.7-2.4-1.1l-1-0.3c-1.1-0.4-1.9-0.8-2.4-1.4s-0.7-1.2-0.7-2.1c0-1,0.4-1.8,1.2-2.5s1.9-1,3.3-1c1.5,0,2.8,0.3,4,0.8
				l-0.6,1.5c-1.2-0.5-2.3-0.8-3.4-0.8c-0.8,0-1.5,0.2-1.9,0.5s-0.7,0.8-0.7,1.4c0,0.5,0.2,0.9,0.5,1.1s1,0.6,2,0.9
				c0.3,0.1,0.6,0.2,1,0.3c1.3,0.4,2.2,0.9,2.8,1.5s0.8,1.3,0.8,2.3c0,1.2-0.4,2.1-1.3,2.8S1005.4,492.3,1004,492.3z M1011.4,497.6
				v-18.4h1.7l0.2,1.7c1.1-1.3,2.5-2,4.1-2c1.2,0,2.2,0.3,3,0.9s1.4,1.4,1.8,2.4s0.6,2.2,0.6,3.5s-0.2,2.4-0.6,3.4s-1,1.8-1.9,2.4
				s-1.8,0.9-2.9,0.9c-0.8,0-1.6-0.2-2.3-0.6s-1.3-0.9-1.7-1.5c0,0.8,0.1,1.7,0.1,2.5v4.7L1011.4,497.6z M1017.1,490.6
				c0.6,0,1.1-0.1,1.6-0.4s0.8-0.6,1.1-1.1s0.5-1,0.7-1.6s0.2-1.2,0.2-1.9c0-1.5-0.3-2.7-0.9-3.6s-1.5-1.4-2.7-1.4
				c-2.5,0-3.7,1.6-3.7,4.8c0,1.7,0.3,3.1,0.9,3.9S1015.7,490.6,1017.1,490.6z M1030.5,480.5c-1,0-1.8,0.4-2.4,1.1s-1,1.7-1.1,2.9
				h6.8c0-1.3-0.3-2.3-0.9-2.9S1031.5,480.5,1030.5,480.5z M1030.9,492.3c-1.9,0-3.3-0.6-4.4-1.8s-1.6-2.8-1.6-4.9
				c0-2,0.5-3.6,1.6-4.8s2.4-1.9,4.1-1.9c1.6,0,2.9,0.5,3.8,1.6s1.4,2.5,1.4,4.4c0,0.1,0,0.3,0,0.5s0,0.4,0,0.5h-8.8
				c0,1.5,0.4,2.6,1.1,3.4s1.7,1.2,2.9,1.2c1.4,0,2.7-0.4,4.1-1.1l0.3,1.6C1034,491.9,1032.5,492.3,1030.9,492.3z M1043.9,492.3
				c-1.9,0-3.4-0.6-4.4-1.8s-1.6-2.8-1.6-4.8s0.6-3.6,1.6-4.9s2.6-1.9,4.4-1.9c0.7,0,1.3,0.1,1.9,0.2s1.1,0.4,1.5,0.6l-0.5,1.5
				c-0.9-0.5-1.9-0.7-2.9-0.7c-1.2,0-2.2,0.5-2.9,1.4s-1.1,2.1-1.1,3.7c0,1.5,0.4,2.7,1.1,3.6s1.7,1.3,3,1.3c1,0,2-0.3,3.1-0.8
				l0.2,1.6C1046.4,492,1045.2,492.3,1043.9,492.3z M1053.9,492.2c-1.3,0-2.2-0.3-2.7-0.9s-0.8-1.6-0.8-3v-7.7h-1.9l0.1-1.3l1.8-0.2
				l0.7-2.9h1.3v3h3.6v1.5h-3.6v7.4c0,1,0.1,1.7,0.4,2.1s0.8,0.6,1.5,0.6c0.3,0,0.8-0.1,1.7-0.2l0.1,1.5
				C1055.1,492.2,1054.4,492.2,1053.9,492.2z M1060.4,479.1V492h-2v-12.9H1060.4z M1060.4,474.5v2.3h-2v-2.3H1060.4z M1065.5,485.6
				c0,1.5,0.3,2.7,1,3.7s1.7,1.4,3,1.4s2.2-0.5,2.9-1.4s1-2.1,1-3.7s-0.3-2.8-1-3.7s-1.6-1.4-2.9-1.4s-2.3,0.5-2.9,1.4
				S1065.5,484.1,1065.5,485.6z M1075.4,485.6c0,2-0.5,3.6-1.6,4.8s-2.5,1.9-4.4,1.9c-1.8,0-3.2-0.6-4.3-1.9s-1.6-2.9-1.6-4.8
				c0-2,0.5-3.6,1.6-4.9s2.5-1.9,4.4-1.9c1.8,0,3.3,0.6,4.3,1.9S1075.4,483.6,1075.4,485.6z M1078.1,492v-12.9h1.6l0.2,1.8
				c0.5-0.6,1.1-1.1,1.9-1.5s1.6-0.6,2.5-0.6c1.5,0,2.6,0.4,3.3,1.2s1.1,2.1,1.1,3.8v8h-2c0-5.2,0-7.9,0-8.3c0-1.1-0.3-1.9-0.7-2.4
				s-1.1-0.8-2.1-0.8s-1.8,0.2-2.5,0.7s-1.1,1.1-1.3,1.9c-0.1,0.5-0.1,1.1-0.1,1.8v7h-1.9V492z M1009.8,530.3c0.7,0,1.2-0.1,1.7-0.4
				s0.9-0.6,1.2-1s0.5-0.9,0.6-1.4s0.2-1.1,0.2-1.7V525c0-0.6-0.1-1.2-0.2-1.7s-0.4-1-0.7-1.4s-0.7-0.7-1.2-1s-1.1-0.4-1.7-0.4
				c-0.5,0-1,0.1-1.5,0.3s-0.8,0.5-1.1,0.8s-0.5,0.7-0.7,1.2s-0.3,0.9-0.4,1.3s-0.1,0.9-0.1,1.4s0,0.9,0.1,1.3s0.2,0.9,0.4,1.3
				s0.4,0.8,0.7,1.1s0.7,0.6,1.1,0.8S1009.3,530.3,1009.8,530.3z M1006.8,537.9l-0.2-1.8h2.4c0.7,0,1.2,0,1.7-0.1s0.9-0.2,1.2-0.5
				s0.6-0.5,0.8-0.7s0.4-0.6,0.5-1s0.2-0.8,0.2-1.2s0.1-0.9,0.1-1.5V530c-0.5,0.7-1,1.2-1.6,1.6s-1.4,0.5-2.4,0.5
				c-0.7,0-1.4-0.1-2-0.4s-1.1-0.6-1.6-1s-0.8-0.9-1.1-1.5s-0.5-1.1-0.7-1.7s-0.2-1.2-0.2-1.8c0-0.9,0.1-1.8,0.3-2.6s0.6-1.5,1-2.1
				s1-1.1,1.8-1.5s1.6-0.5,2.5-0.5c0.8,0,1.6,0.2,2.2,0.5s1.2,0.8,1.7,1.5v-1.7h1.9v11.9c0,0.5,0,1,0,1.4s-0.1,0.9-0.2,1.4
				s-0.2,0.9-0.4,1.3s-0.4,0.7-0.8,1.1s-0.7,0.7-1.2,0.9s-1,0.4-1.7,0.5s-1.4,0.2-2.2,0.2h-2V537.9z M1024.5,519c0.4,0,0.7,0,1,0.1
				l-0.1,1.8c-0.4-0.1-0.7-0.1-0.9-0.1c-1.1,0-2,0.4-2.7,1.1s-1,1.7-1,2.8v7.2h-2c0-7.9,0-12.2,0-12.9h1.6l0.2,2.3
				c0.4-0.7,1-1.3,1.7-1.8S1023.7,519,1024.5,519z M1031.2,530.7c0.9,0,1.7-0.3,2.5-0.8s1.2-1.2,1.4-2.1v-2.2c0,0-0.3,0-0.7,0.1
				s-0.7,0.1-0.8,0.1c-1.7,0.1-2.9,0.4-3.5,0.8s-1,1.1-1,2c0,0.7,0.2,1.2,0.6,1.6S1030.5,530.7,1031.2,530.7z M1035.4,532
				c-0.1-0.5-0.2-1-0.3-1.6c-0.7,0.7-1.4,1.2-2,1.5s-1.4,0.4-2.2,0.4c-1.2,0-2.2-0.3-2.9-0.9s-1.1-1.5-1.1-2.7
				c0-1.3,0.5-2.3,1.5-2.9s2.4-1,4.3-1.2c0.3,0,0.6-0.1,1.2-0.1s0.9-0.1,1.2-0.1v-1.1c0-0.9-0.2-1.6-0.6-2s-1.1-0.7-2-0.7
				c-1.3,0-2.5,0.3-3.8,0.9c0-0.1-0.1-0.4-0.3-0.8s-0.2-0.7-0.3-0.7c0.6-0.3,1.2-0.6,2-0.8s1.6-0.3,2.4-0.3c1.6,0,2.8,0.3,3.5,1
				s1.1,1.9,1.1,3.6v8.5L1035.4,532L1035.4,532z M1045.4,530.6c1.3,0,2.2-0.4,2.9-1.2s0.9-2,0.9-3.6c0-1.7-0.3-3-0.9-3.9
				s-1.6-1.3-2.9-1.3c-0.6,0-1.1,0.1-1.6,0.4s-0.8,0.6-1.1,1.1s-0.5,1-0.6,1.6s-0.2,1.3-0.2,2c0,1,0.1,1.9,0.4,2.6s0.6,1.3,1.2,1.8
				S1044.6,530.6,1045.4,530.6z M1049.2,530.1c-0.4,0.6-1,1.2-1.7,1.5s-1.5,0.6-2.4,0.6c-1.7,0-3-0.6-4-1.8s-1.4-2.8-1.4-4.9
				c0-2,0.5-3.6,1.5-4.8s2.3-1.8,3.9-1.8c0.9,0,1.7,0.2,2.4,0.6s1.3,0.9,1.7,1.5v-1.1v-5.7l1.9-0.1v18h-1.7L1049.2,530.1z
				 M1059.6,520.5c-1,0-1.8,0.4-2.4,1.1s-1,1.7-1.1,2.9h6.8c0-1.3-0.3-2.3-0.9-2.9S1060.6,520.5,1059.6,520.5z M1060,532.3
				c-1.9,0-3.3-0.6-4.4-1.8s-1.6-2.8-1.6-4.9c0-2,0.5-3.6,1.6-4.8s2.4-1.9,4.1-1.9c1.6,0,2.9,0.5,3.8,1.6s1.4,2.5,1.4,4.4
				c0,0.1,0,0.3,0,0.5s0,0.4,0,0.5h-8.8c0,1.5,0.4,2.6,1.1,3.4s1.7,1.2,2.9,1.2c1.4,0,2.7-0.4,4.1-1.1l0.3,1.6
				C1063.1,531.9,1061.6,532.3,1060,532.3z"/>
			<path id="The-average-user-rev" class="st1" d="M639.8,452h-2v-15.5h-5.3v-1.8h12.7v1.8h-5.3V452H639.8z M655.6,452v-7.8
				c0-1.3-0.2-2.2-0.6-2.8s-1.1-0.9-2.2-0.9c-1,0-1.8,0.2-2.5,0.7s-1.1,1.1-1.3,1.9c-0.1,0.6-0.1,1.2-0.1,2v6.9h-2v-17.8l2-0.1v5.2
				c0,0.4,0,1,0,1.7c1.1-1.4,2.6-2,4.4-2c2.9,0,4.3,1.7,4.3,5.1v8.1h-2V452z M665,440.5c-1,0-1.8,0.4-2.4,1.1s-1,1.7-1.1,2.9h6.8
				c0-1.3-0.3-2.3-0.9-2.9S666,440.5,665,440.5z M665.4,452.3c-1.9,0-3.3-0.6-4.4-1.8s-1.6-2.8-1.6-4.9c0-2,0.5-3.6,1.6-4.8
				s2.4-1.9,4.1-1.9c1.6,0,2.9,0.5,3.8,1.6s1.4,2.5,1.4,4.4c0,0.1,0,0.3,0,0.5s0,0.4,0,0.5h-8.8c0,1.5,0.4,2.6,1.1,3.4
				s1.7,1.2,2.9,1.2c1.4,0,2.7-0.4,4.1-1.1l0.3,1.6C668.5,451.9,667,452.3,665.4,452.3z M682.6,450.7c0.9,0,1.7-0.3,2.5-0.8
				s1.2-1.2,1.4-2.1v-2.2c0,0-0.3,0-0.7,0.1s-0.7,0.1-0.8,0.1c-1.7,0.1-2.9,0.4-3.5,0.8s-1,1.1-1,2c0,0.7,0.2,1.2,0.6,1.6
				S681.9,450.7,682.6,450.7z M686.9,452c-0.1-0.5-0.2-1-0.3-1.6c-0.7,0.7-1.4,1.2-2,1.5s-1.4,0.4-2.2,0.4c-1.2,0-2.2-0.3-2.9-0.9
				s-1.1-1.5-1.1-2.7c0-1.3,0.5-2.3,1.5-2.9s2.4-1,4.3-1.2c0.3,0,0.6-0.1,1.2-0.1s0.9-0.1,1.2-0.1v-1.1c0-0.9-0.2-1.6-0.6-2
				s-1.1-0.7-2-0.7c-1.3,0-2.5,0.3-3.8,0.9c0-0.1-0.1-0.4-0.3-0.8s-0.2-0.7-0.3-0.7c0.6-0.3,1.2-0.6,2-0.8s1.6-0.3,2.4-0.3
				c1.6,0,2.8,0.3,3.5,1s1.1,1.9,1.1,3.6v8.5L686.9,452L686.9,452z M695.1,452l-5-12.9h2.1l2.8,7.6l1.2,3.3c0.3-0.8,0.6-1.9,1.1-3.2
				c0.6-1.7,1.5-4.2,2.8-7.7h2.1l-4.9,12.9L695.1,452L695.1,452z M708.9,440.5c-1,0-1.8,0.4-2.4,1.1s-1,1.7-1.1,2.9h6.8
				c0-1.3-0.3-2.3-0.9-2.9S709.9,440.5,708.9,440.5z M709.3,452.3c-1.9,0-3.3-0.6-4.4-1.8s-1.6-2.8-1.6-4.9c0-2,0.5-3.6,1.6-4.8
				s2.4-1.9,4.1-1.9c1.6,0,2.9,0.5,3.8,1.6s1.4,2.5,1.4,4.4c0,0.1,0,0.3,0,0.5s0,0.4,0,0.5h-8.8c0,1.5,0.4,2.6,1.1,3.4
				s1.7,1.2,2.9,1.2c1.4,0,2.7-0.4,4.1-1.1l0.3,1.6C712.4,451.9,711,452.3,709.3,452.3z M722.6,439c0.4,0,0.7,0,1,0.1l-0.1,1.8
				c-0.4-0.1-0.7-0.1-0.9-0.1c-1.1,0-2,0.4-2.7,1.1s-1,1.7-1,2.8v7.2h-2c0-7.9,0-12.2,0-12.9h1.6l0.2,2.3c0.4-0.7,1-1.3,1.7-1.8
				S721.8,439,722.6,439z M729.3,450.7c0.9,0,1.7-0.3,2.5-0.8s1.2-1.2,1.4-2.1v-2.2c0,0-0.3,0-0.7,0.1s-0.7,0.1-0.8,0.1
				c-1.7,0.1-2.9,0.4-3.5,0.8s-1,1.1-1,2c0,0.7,0.2,1.2,0.6,1.6S728.6,450.7,729.3,450.7z M733.5,452c-0.1-0.5-0.2-1-0.3-1.6
				c-0.7,0.7-1.4,1.2-2,1.5s-1.4,0.4-2.2,0.4c-1.2,0-2.2-0.3-2.9-0.9s-1.1-1.5-1.1-2.7c0-1.3,0.5-2.3,1.5-2.9s2.4-1,4.3-1.2
				c0.3,0,0.6-0.1,1.2-0.1s0.9-0.1,1.2-0.1v-1.1c0-0.9-0.2-1.6-0.6-2s-1.1-0.7-2-0.7c-1.3,0-2.5,0.3-3.8,0.9c0-0.1-0.1-0.4-0.3-0.8
				s-0.2-0.7-0.3-0.7c0.6-0.3,1.2-0.6,2-0.8s1.6-0.3,2.4-0.3c1.6,0,2.8,0.3,3.5,1s1.1,1.9,1.1,3.6v8.5L733.5,452L733.5,452z
				 M743.4,450.3c0.7,0,1.2-0.1,1.7-0.4s0.9-0.6,1.2-1s0.5-0.9,0.6-1.4s0.2-1.1,0.2-1.7V445c0-0.6-0.1-1.2-0.2-1.7s-0.4-1-0.7-1.4
				s-0.7-0.7-1.2-1s-1.1-0.4-1.7-0.4c-0.5,0-1,0.1-1.5,0.3s-0.8,0.5-1.1,0.8s-0.5,0.7-0.7,1.2s-0.3,0.9-0.4,1.3s-0.1,0.9-0.1,1.4
				s0,0.9,0.1,1.3s0.2,0.9,0.4,1.3s0.4,0.8,0.7,1.1s0.7,0.6,1.1,0.8S742.9,450.3,743.4,450.3z M740.4,457.9l-0.2-1.8h2.4
				c0.7,0,1.2,0,1.7-0.1s0.9-0.2,1.2-0.5s0.6-0.5,0.8-0.7s0.4-0.6,0.5-1s0.2-0.8,0.2-1.2s0.1-0.9,0.1-1.5V450
				c-0.5,0.7-1,1.2-1.6,1.6s-1.4,0.5-2.4,0.5c-0.7,0-1.4-0.1-2-0.4s-1.1-0.6-1.6-1s-0.8-0.9-1.1-1.5s-0.5-1.1-0.7-1.7
				s-0.2-1.2-0.2-1.8c0-0.9,0.1-1.8,0.3-2.6s0.6-1.5,1-2.1s1-1.1,1.8-1.5s1.6-0.5,2.5-0.5c0.8,0,1.6,0.2,2.2,0.5s1.2,0.8,1.7,1.5
				v-1.7h1.9v11.9c0,0.5,0,1,0,1.4s-0.1,0.9-0.2,1.4s-0.2,0.9-0.4,1.3s-0.4,0.7-0.8,1.1s-0.7,0.7-1.2,0.9s-1,0.4-1.7,0.5
				s-1.4,0.2-2.2,0.2L740.4,457.9L740.4,457.9z M757.4,440.5c-1,0-1.8,0.4-2.4,1.1s-1,1.7-1.1,2.9h6.8c0-1.3-0.3-2.3-0.9-2.9
				S758.4,440.5,757.4,440.5z M757.8,452.3c-1.9,0-3.3-0.6-4.4-1.8s-1.6-2.8-1.6-4.9c0-2,0.5-3.6,1.6-4.8s2.4-1.9,4.1-1.9
				c1.6,0,2.9,0.5,3.8,1.6s1.4,2.5,1.4,4.4c0,0.1,0,0.3,0,0.5s0,0.4,0,0.5h-8.8c0,1.5,0.4,2.6,1.1,3.4s1.7,1.2,2.9,1.2
				c1.4,0,2.7-0.4,4.1-1.1l0.3,1.6C760.9,451.9,759.5,452.3,757.8,452.3z M637.5,487.7v-8.6h2v8.6c0,0.6,0.1,1,0.2,1.4
				s0.4,0.7,0.7,0.9s0.6,0.4,1,0.5s0.8,0.1,1.3,0.1c1,0,1.8-0.2,2.4-0.7s0.8-1.2,0.8-2.3V479h2v8.6c0,0.7-0.1,1.2-0.3,1.8
				s-0.4,1-0.8,1.3s-0.7,0.6-1.1,0.9s-0.9,0.4-1.4,0.5s-1,0.2-1.6,0.2s-1.1-0.1-1.6-0.2s-1-0.3-1.4-0.5s-0.8-0.5-1.2-0.9
				s-0.6-0.8-0.8-1.3S637.5,488.4,637.5,487.7z M654.7,492.3c-0.9,0-1.7-0.1-2.4-0.3s-1.3-0.4-1.8-0.7l0.2-1.7c1.3,0.7,2.6,1,3.8,1
				c1.9,0,2.9-0.7,2.9-2c0-0.6-0.2-1-0.6-1.3s-1.2-0.7-2.4-1.1l-1-0.3c-1.1-0.4-1.9-0.8-2.4-1.4s-0.7-1.2-0.7-2.1
				c0-1,0.4-1.8,1.2-2.5s1.9-1,3.3-1c1.5,0,2.8,0.3,4,0.8l-0.6,1.5c-1.2-0.5-2.3-0.8-3.4-0.8c-0.8,0-1.5,0.2-1.9,0.5
				s-0.7,0.8-0.7,1.4c0,0.5,0.2,0.9,0.5,1.1s1,0.6,2,0.9c0.3,0.1,0.6,0.2,1,0.3c1.3,0.4,2.2,0.9,2.8,1.5s0.8,1.3,0.8,2.3
				c0,1.2-0.4,2.1-1.3,2.8S656.1,492.3,654.7,492.3z M667.1,480.5c-1,0-1.8,0.4-2.4,1.1s-1,1.7-1.1,2.9h6.8c0-1.3-0.3-2.3-0.9-2.9
				S668.1,480.5,667.1,480.5z M667.5,492.3c-1.9,0-3.3-0.6-4.4-1.8s-1.6-2.8-1.6-4.9c0-2,0.5-3.6,1.6-4.8s2.4-1.9,4.1-1.9
				c1.6,0,2.9,0.5,3.8,1.6s1.4,2.5,1.4,4.4c0,0.1,0,0.3,0,0.5s0,0.4,0,0.5h-8.8c0,1.5,0.4,2.6,1.1,3.4s1.7,1.2,2.9,1.2
				c1.4,0,2.7-0.4,4.1-1.1l0.3,1.6C670.6,491.9,669.2,492.3,667.5,492.3z M680.8,479c0.4,0,0.7,0,1,0.1l-0.1,1.8
				c-0.4-0.1-0.7-0.1-0.9-0.1c-1.1,0-2,0.4-2.7,1.1s-1,1.7-1,2.8v7.2h-2c0-7.9,0-12.2,0-12.9h1.6l0.2,2.3c0.4-0.7,1-1.3,1.7-1.8
				S680,479,680.8,479z M695.5,479c0.4,0,0.7,0,1,0.1l-0.1,1.8c-0.4-0.1-0.7-0.1-0.9-0.1c-1.1,0-2,0.4-2.7,1.1s-1,1.7-1,2.8v7.2h-2
				c0-7.9,0-12.2,0-12.9h1.6l0.2,2.3c0.4-0.7,1-1.3,1.7-1.8S694.8,479,695.5,479z M703.6,480.5c-1,0-1.8,0.4-2.4,1.1s-1,1.7-1.1,2.9
				h6.8c0-1.3-0.3-2.3-0.9-2.9S704.6,480.5,703.6,480.5z M703.9,492.3c-1.9,0-3.3-0.6-4.4-1.8s-1.6-2.8-1.6-4.9c0-2,0.5-3.6,1.6-4.8
				s2.4-1.9,4.1-1.9c1.6,0,2.9,0.5,3.8,1.6s1.4,2.5,1.4,4.4c0,0.1,0,0.3,0,0.5s0,0.4,0,0.5H700c0,1.5,0.4,2.6,1.1,3.4
				s1.7,1.2,2.9,1.2c1.4,0,2.7-0.4,4.1-1.1l0.3,1.6C707.1,491.9,705.6,492.3,703.9,492.3z M714.8,492l-5-12.9h2.1l2.8,7.6l1.2,3.3
				c0.3-0.8,0.6-1.9,1.1-3.2c0.6-1.7,1.5-4.2,2.8-7.7h2.1L717,492L714.8,492L714.8,492z M725.9,479.1V492h-2v-12.9H725.9z
				 M725.9,474.5v2.3h-2v-2.3H725.9z M734.6,480.5c-1,0-1.8,0.4-2.4,1.1s-1,1.7-1.1,2.9h6.8c0-1.3-0.3-2.3-0.9-2.9
				S735.6,480.5,734.6,480.5z M735,492.3c-1.9,0-3.3-0.6-4.4-1.8s-1.6-2.8-1.6-4.9c0-2,0.5-3.6,1.6-4.8s2.4-1.9,4.1-1.9
				c1.6,0,2.9,0.5,3.8,1.6s1.4,2.5,1.4,4.4c0,0.1,0,0.3,0,0.5s0,0.4,0,0.5H731c0,1.5,0.4,2.6,1.1,3.4s1.7,1.2,2.9,1.2
				c1.4,0,2.7-0.4,4.1-1.1l0.3,1.6C738.2,491.9,736.7,492.3,735,492.3z M753.6,492c-1.8-5.8-2.9-9.4-3.4-10.8
				c-0.2,0.9-0.5,1.8-0.8,2.8s-0.6,1.9-0.8,2.6s-0.5,1.6-0.9,2.8s-0.7,2-0.9,2.6h-2.1l-3.7-12.9h2l2.8,10.5
				c0.4-1.2,1.5-4.8,3.4-10.5h2.2c1.9,5.9,3,9.4,3.3,10.5l2.7-10.5h2l-3.7,12.9H753.6z"/>
			<g id="Group-2">
				<g id="Group">
					<rect id="Rectangle" x="2" y="2" class="st2" width="188" height="336"/>
					<rect id="Rectangle-Copy" x="190" y="2" class="st2" width="243" height="336"/>
					<rect id="Rectangle-Copy-2" x="433" y="2" class="st2" width="169" height="336"/>
					<rect id="Rectangle-Copy-3" x="602" y="2" class="st2" width="188" height="336"/>
					<rect x="790" y="2" class="st2" width="150" height="336"/>
					<rect id="Rectangle-Copy-4" x="940" y="2" class="st2" width="188" height="336"/>
					<path id="price" class="st3" d="M834.4,56V33h2.2l0.2,2.2c1.4-1.7,3.1-2.5,5.1-2.5c1.5,0,2.7,0.4,3.7,1.1s1.8,1.7,2.2,3
						s0.7,2.7,0.7,4.4c0,1.6-0.3,3-0.8,4.3s-1.3,2.2-2.3,2.9s-2.2,1.1-3.6,1.1c-1,0-2-0.2-2.9-0.7s-1.6-1.1-2.2-1.8
						c0.1,1.1,0.1,2.1,0.1,3.1V56H834.4z M841.5,47.3c0.7,0,1.4-0.2,2-0.5s1.1-0.8,1.4-1.4s0.6-1.3,0.8-2s0.3-1.6,0.3-2.4
						c0-1.8-0.4-3.3-1.2-4.5s-1.9-1.8-3.4-1.8c-3.1,0-4.7,2-4.7,6c0,2.2,0.4,3.8,1.1,4.9S839.8,47.3,841.5,47.3z M859.2,32.8
						c0.4,0,0.8,0,1.2,0.1l-0.1,2.3c-0.4-0.1-0.8-0.1-1.2-0.1c-1.4,0-2.5,0.5-3.3,1.4s-1.3,2.1-1.3,3.5v9h-2.4c0-9.9,0-15.2,0-16.1
						h2l0.2,2.9c0.6-0.9,1.3-1.6,2.1-2.2S858.2,32.8,859.2,32.8z M865.8,32.9V49h-2.5V32.9H865.8z M865.8,27.1V30h-2.5v-2.9H865.8z
						 M877.2,49.3c-2.4,0-4.2-0.8-5.5-2.3s-2-3.5-2-6s0.7-4.5,2-6.1s3.2-2.3,5.6-2.3c0.8,0,1.6,0.1,2.4,0.3s1.4,0.5,1.8,0.8
						l-0.7,1.9c-1.1-0.6-2.3-0.9-3.6-0.9c-1.6,0-2.8,0.6-3.7,1.7s-1.4,2.7-1.4,4.6c0,1.9,0.4,3.4,1.3,4.5s2.1,1.7,3.7,1.7
						c1.3,0,2.5-0.3,3.9-1l0.3,1.9C880.3,49,878.9,49.3,877.2,49.3z M890.9,34.6c-1.2,0-2.3,0.4-3.1,1.3s-1.3,2.1-1.4,3.6h8.5
						c0-1.6-0.4-2.8-1.1-3.7S892.1,34.6,890.9,34.6z M891.4,49.3c-2.3,0-4.2-0.7-5.5-2.2s-2-3.5-2-6.1c0-2.5,0.6-4.5,1.9-6.1
						s3-2.3,5.1-2.4c2,0,3.6,0.7,4.7,2s1.8,3.2,1.8,5.5c0,0.1,0,0.3,0,0.6s0,0.5,0,0.7h-11c0,1.8,0.5,3.2,1.4,4.3s2.1,1.5,3.7,1.5
						c1.7,0,3.4-0.4,5.1-1.3l0.4,2C895.3,48.8,893.5,49.3,891.4,49.3z"/>
					<path id="health" class="st3" d="M1005.6,49v-9.7c0-1.6-0.3-2.8-0.8-3.5s-1.4-1.1-2.7-1.1c-1.2,0-2.3,0.3-3.1,0.9
						s-1.4,1.4-1.6,2.4c-0.1,0.7-0.1,1.5-0.1,2.4V49h-2.4V26.7l2.4-0.1v6.5c0,0.6,0,1.2-0.1,2.1c1.4-1.7,3.2-2.5,5.5-2.5
						c3.6,0,5.4,2.1,5.4,6.3v10H1005.6z M1017.4,34.6c-1.2,0-2.3,0.4-3.1,1.3s-1.3,2.1-1.4,3.6h8.5c0-1.6-0.4-2.8-1.1-3.7
						S1018.6,34.6,1017.4,34.6z M1017.9,49.3c-2.3,0-4.2-0.7-5.5-2.2s-2-3.5-2-6.1c0-2.5,0.6-4.5,1.9-6.1s3-2.3,5.1-2.4
						c2,0,3.6,0.7,4.7,2s1.8,3.2,1.8,5.5c0,0.1,0,0.3,0,0.6s0,0.5,0,0.7h-11c0,1.8,0.5,3.2,1.4,4.3s2.1,1.5,3.7,1.5
						c1.7,0,3.4-0.4,5.1-1.3l0.4,2C1021.8,48.8,1020,49.3,1017.9,49.3z M1031.9,47.4c1.2,0,2.2-0.3,3.1-1s1.5-1.5,1.7-2.6v-2.7
						c0,0-0.3,0-0.9,0.1s-0.9,0.1-1.1,0.1c-2.1,0.2-3.6,0.5-4.4,1s-1.3,1.3-1.3,2.4c0,0.9,0.3,1.5,0.8,1.9S1031.1,47.4,1031.9,47.4z
						 M1037.3,49c-0.1-0.6-0.3-1.3-0.4-2c-0.9,0.9-1.7,1.5-2.5,1.8s-1.7,0.5-2.8,0.5c-1.5,0-2.7-0.4-3.6-1.2s-1.4-1.9-1.4-3.4
						c0-1.6,0.6-2.9,1.9-3.6s3-1.3,5.4-1.5c0.3,0,0.8-0.1,1.5-0.1s1.1-0.1,1.5-0.1V38c0-1.1-0.3-2-0.8-2.5s-1.4-0.8-2.5-0.8
						c-1.6,0-3.2,0.4-4.8,1.2c0-0.1-0.2-0.5-0.4-1s-0.3-0.9-0.3-0.9c0.7-0.4,1.6-0.7,2.5-1s2-0.4,3-0.4c2,0,3.4,0.4,4.3,1.3
						s1.3,2.4,1.3,4.5V49H1037.3z M1047.7,49.3c-1.6,0-2.7-0.4-3.3-1.3s-1-2.3-1-4.4v-17l2.4-0.1v16.1c0,0.7,0,1.2,0,1.6
						s0.1,0.8,0.1,1.2s0.1,0.7,0.2,0.9s0.2,0.4,0.4,0.5s0.4,0.3,0.7,0.3s0.6,0.1,1,0.1c0.3,0,0.9-0.1,1.8-0.2l0.1,1.9
						C1049.2,49.2,1048.4,49.3,1047.7,49.3z M1056.8,49.3c-1.6,0-2.7-0.4-3.4-1.2s-1-2-1.1-3.7v-9.7h-2.4l0.1-1.6l2.3-0.2l0.8-3.7
						l1.6-0.1v3.7h4.5v1.8h-4.5V44c0,1.2,0.2,2.1,0.6,2.6s1,0.7,1.9,0.7c0.3,0,1-0.1,2.1-0.2l0.1,1.9
						C1058.4,49.2,1057.5,49.3,1056.8,49.3z M1072.9,49v-9.7c0-1.6-0.3-2.8-0.8-3.5s-1.4-1.1-2.7-1.1c-1.2,0-2.3,0.3-3.1,0.9
						s-1.4,1.4-1.6,2.4c-0.1,0.7-0.1,1.5-0.1,2.4V49h-2.4V26.7l2.4-0.1v6.5c0,0.6,0,1.2-0.1,2.1c1.4-1.7,3.2-2.5,5.5-2.5
						c3.6,0,5.4,2.1,5.4,6.3v10H1072.9z"/>
				</g>
				<path id="name" class="st0" d="M60.3,49V32.9h2.1l0.3,2.3c0.6-0.8,1.4-1.4,2.4-1.9s2-0.7,3.1-0.7c1.9,0,3.2,0.5,4.1,1.6
					s1.3,2.6,1.3,4.8v10h-2.4c0-6.4,0-9.9,0-10.4c0-1.4-0.3-2.4-0.8-3s-1.4-1-2.6-1c-1.3,0-2.3,0.3-3.1,0.9
					c-0.8,0.6-1.4,1.4-1.6,2.4C63,38.6,63,39.3,63,40.2V49H60.3z M82.3,47.4c1.2,0,2.2-0.3,3.1-1s1.5-1.5,1.7-2.6v-2.7
					c0,0-0.3,0-0.9,0.1s-0.9,0.1-1.1,0.1c-2.1,0.2-3.6,0.5-4.4,1s-1.3,1.3-1.3,2.4c0,0.9,0.3,1.5,0.8,1.9S81.4,47.4,82.3,47.4z
					 M87.6,49c-0.1-0.6-0.3-1.3-0.4-2c-0.9,0.9-1.7,1.5-2.5,1.8s-1.7,0.5-2.8,0.5c-1.5,0-2.7-0.4-3.6-1.2s-1.4-1.9-1.4-3.4
					c0-1.6,0.6-2.9,1.9-3.6s3-1.3,5.4-1.5c0.3,0,0.8-0.1,1.5-0.1s1.1-0.1,1.5-0.1V38c0-1.1-0.3-2-0.8-2.5s-1.4-0.8-2.5-0.8
					c-1.6,0-3.2,0.4-4.8,1.2c0-0.1-0.2-0.5-0.4-1S78.4,34,78.4,34c0.7-0.4,1.6-0.7,2.5-1s2-0.4,3-0.4c2,0,3.4,0.4,4.3,1.3
					s1.3,2.4,1.3,4.5V49H87.6z M114.1,49v-8.4c0-0.8,0-1.4-0.1-2s-0.1-1.1-0.2-1.6s-0.3-1-0.5-1.3s-0.5-0.6-0.9-0.8
					s-0.9-0.3-1.4-0.3c-1.1,0-2,0.3-2.7,0.9s-1.3,1.4-1.6,2.4c-0.1,0.7-0.1,1.5-0.1,2.3V49H104v-8.6c0-0.7,0-1.4-0.1-1.9
					s-0.1-1-0.3-1.6s-0.3-0.9-0.5-1.2s-0.5-0.6-0.9-0.7s-0.8-0.3-1.4-0.3c-1.2,0-2.2,0.3-3,0.9S96.6,37,96.3,38
					c-0.1,0.8-0.1,1.6-0.1,2.4V49h-2.4c0-10,0-15.4,0-16.1h2.1l0.3,2.3c0.5-0.7,1.2-1.4,2.1-1.9s1.9-0.8,3.1-0.8
					c0.6,0,1.1,0.1,1.6,0.2s0.9,0.3,1.3,0.5s0.6,0.4,0.9,0.7s0.5,0.5,0.6,0.8s0.3,0.5,0.4,0.8c1.2-1.9,3-2.9,5.4-2.9
					c1.8,0,3.1,0.5,3.9,1.5s1.3,2.5,1.3,4.5V49H114.1z M126,34.6c-1.3,0-2.3,0.4-3.1,1.3c-0.8,0.9-1.3,2.1-1.4,3.6h8.5
					c0-1.6-0.4-2.8-1.1-3.7S127.2,34.6,126,34.6z M126.5,49.3c-2.3,0-4.2-0.7-5.5-2.2s-2-3.5-2-6.1c0-2.5,0.6-4.5,1.9-6.1
					s3-2.3,5.1-2.4c2,0,3.6,0.7,4.7,2s1.8,3.2,1.8,5.5c0,0.1,0,0.3,0,0.6s0,0.5,0,0.7h-11c0,1.8,0.5,3.2,1.4,4.3s2.1,1.5,3.7,1.5
					c1.7,0,3.4-0.4,5.1-1.3l0.4,2C130.4,48.8,128.6,49.3,126.5,49.3z"/>
				<path id="neighborhood" class="st0" d="M218.5,49V32.9h2.1l0.3,2.3c0.6-0.8,1.4-1.4,2.4-1.9s2-0.7,3.1-0.7
					c1.9,0,3.2,0.5,4.1,1.6s1.3,2.6,1.3,4.8v10h-2.4c0-6.4,0-9.9,0-10.4c0-1.4-0.3-2.4-0.8-3s-1.4-1-2.6-1c-1.3,0-2.3,0.3-3.1,0.9
					s-1.4,1.4-1.6,2.4c-0.1,0.7-0.1,1.4-0.1,2.3V49H218.5z M242.1,34.6c-1.2,0-2.3,0.4-3.1,1.3s-1.3,2.1-1.4,3.6h8.5
					c0-1.6-0.4-2.8-1.1-3.7S243.4,34.6,242.1,34.6z M242.6,49.3c-2.3,0-4.2-0.7-5.5-2.2s-2-3.5-2-6.1c0-2.5,0.6-4.5,1.9-6.1
					s3-2.3,5.1-2.4c2,0,3.6,0.7,4.7,2s1.8,3.2,1.8,5.5c0,0.1,0,0.3,0,0.6s0,0.5,0,0.7h-11c0,1.8,0.5,3.2,1.4,4.3s2.1,1.5,3.7,1.5
					c1.7,0,3.4-0.4,5.1-1.3l0.4,2C246.6,48.8,244.7,49.3,242.6,49.3z M254.9,32.9V49h-2.5V32.9H254.9z M254.9,27.1V30h-2.5v-2.9
					H254.9z M265.8,46.9c0.8,0,1.6-0.1,2.2-0.4s1.1-0.7,1.5-1.2s0.6-1.1,0.8-1.7s0.3-1.3,0.3-2.1v-1.2c0-0.8-0.1-1.5-0.3-2.2
					s-0.4-1.2-0.8-1.8s-0.9-0.9-1.5-1.2s-1.3-0.4-2.1-0.4c-0.7,0-1.3,0.1-1.8,0.4s-1,0.6-1.4,1s-0.7,0.9-0.9,1.5s-0.4,1.1-0.5,1.7
					s-0.2,1.1-0.2,1.7c0,0.6,0.1,1.1,0.2,1.7s0.3,1.1,0.6,1.6s0.6,1,0.9,1.4s0.8,0.7,1.4,1S265.1,46.9,265.8,46.9z M262,56.4
					l-0.2-2.2h3c0.8,0,1.6-0.1,2.2-0.2s1.1-0.3,1.5-0.6s0.7-0.6,1-0.9s0.4-0.8,0.6-1.3s0.2-1,0.3-1.6s0.1-1.1,0.1-1.9v-1.4
					c-0.6,0.8-1.3,1.5-2,1.9s-1.8,0.7-2.9,0.7c-0.9,0-1.8-0.2-2.5-0.5s-1.4-0.7-2-1.3s-1-1.1-1.4-1.8s-0.6-1.4-0.8-2.2
					s-0.3-1.5-0.3-2.2c0-1.2,0.1-2.3,0.4-3.3s0.7-1.9,1.3-2.7s1.3-1.4,2.2-1.8s2-0.7,3.2-0.7c1.1,0,2,0.2,2.8,0.6s1.5,1,2.1,1.9
					v-2.1h2.4v14.9c0,0.7,0,1.3-0.1,1.8s-0.1,1.1-0.2,1.7s-0.3,1.2-0.5,1.6s-0.5,0.9-0.9,1.4s-0.9,0.8-1.5,1.1s-1.3,0.5-2.1,0.7
					s-1.8,0.3-2.8,0.3L262,56.4L262,56.4z M287.7,49v-9.7c0-1.6-0.3-2.8-0.8-3.5s-1.4-1.1-2.7-1.1c-1.2,0-2.3,0.3-3.1,0.9
					s-1.4,1.4-1.6,2.4c-0.1,0.7-0.1,1.5-0.1,2.4V49H277V26.7l2.4-0.1v6.5c0,0.6,0,1.2-0.1,2.1c1.4-1.7,3.2-2.5,5.5-2.5
					c3.6,0,5.4,2.1,5.4,6.3v10H287.7z M300.5,34.6c-1.6,0-2.7,0.5-3.6,1.6s-1.2,2.6-1.2,4.7c0,4.2,1.6,6.4,4.8,6.4
					c0.8,0,1.5-0.2,2.1-0.5s1.1-0.8,1.4-1.4s0.6-1.3,0.8-2s0.3-1.6,0.3-2.5c0-1.2-0.1-2.3-0.4-3.2s-0.8-1.7-1.5-2.2
					S301.6,34.6,300.5,34.6z M300.8,32.6c1.4,0,2.7,0.4,3.7,1.1s1.8,1.7,2.3,2.9s0.8,2.7,0.8,4.3c0,1.7-0.3,3.1-0.8,4.4
					s-1.3,2.3-2.3,3s-2.3,1.1-3.7,1.1c-1.1,0-2-0.2-2.9-0.7s-1.6-1.1-2.2-1.9l-0.2,2.2h-2.1V26.7l2.4-0.1v5.3c0,1.3,0,2.4-0.1,3.4
					c0.6-0.8,1.3-1.5,2.2-1.9S299.7,32.6,300.8,32.6z M312.8,41c0,1.9,0.4,3.4,1.3,4.6s2.1,1.7,3.7,1.7s2.8-0.6,3.6-1.7
					c0.8-1.1,1.2-2.7,1.2-4.6c0-2-0.4-3.5-1.2-4.6s-2-1.7-3.7-1.7c-1.6,0-2.8,0.6-3.7,1.7S312.8,39.1,312.8,41z M325.1,41
					c0,2.5-0.7,4.5-2,6.1s-3.2,2.3-5.5,2.3s-4.1-0.8-5.4-2.3s-2-3.6-2-6c0-2.5,0.7-4.5,2-6.1s3.2-2.3,5.5-2.3s4.1,0.8,5.4,2.3
					S325.1,38.5,325.1,41z M335.8,32.8c0.4,0,0.8,0,1.2,0.1l-0.1,2.3c-0.4-0.1-0.8-0.1-1.2-0.1c-1.4,0-2.5,0.5-3.3,1.4
					s-1.3,2.1-1.3,3.5v9h-2.4c0-9.9,0-15.2,0-16.1h2l0.2,2.9c0.6-0.9,1.3-1.6,2.1-2.2S334.8,32.8,335.8,32.8z M350.3,49v-9.7
					c0-1.6-0.3-2.8-0.8-3.5s-1.4-1.1-2.7-1.1c-1.2,0-2.3,0.3-3.1,0.9s-1.4,1.4-1.6,2.4c-0.1,0.7-0.1,1.5-0.1,2.4V49h-2.4V26.7
					l2.4-0.1v6.5c0,0.6,0,1.2-0.1,2.1c1.4-1.7,3.2-2.5,5.5-2.5c3.6,0,5.4,2.1,5.4,6.3v10H350.3z M357.6,41c0,1.9,0.4,3.4,1.3,4.6
					s2.1,1.7,3.7,1.7s2.8-0.6,3.6-1.7c0.8-1.1,1.2-2.7,1.2-4.6c0-2-0.4-3.5-1.2-4.6s-2-1.7-3.7-1.7c-1.6,0-2.8,0.6-3.7,1.7
					S357.6,39.1,357.6,41z M369.9,41c0,2.5-0.7,4.5-2,6.1s-3.2,2.3-5.5,2.3s-4.1-0.8-5.4-2.3s-2-3.6-2-6c0-2.5,0.7-4.5,2-6.1
					s3.2-2.3,5.5-2.3s4.1,0.8,5.4,2.3S369.9,38.5,369.9,41z M375.2,41c0,1.9,0.4,3.4,1.3,4.6s2.1,1.7,3.7,1.7s2.8-0.6,3.6-1.7
					c0.8-1.1,1.2-2.7,1.2-4.6c0-2-0.4-3.5-1.2-4.6s-2-1.7-3.7-1.7c-1.6,0-2.8,0.6-3.7,1.7S375.2,39.1,375.2,41z M387.5,41
					c0,2.5-0.7,4.5-2,6.1s-3.2,2.3-5.5,2.3s-4.1-0.8-5.4-2.3s-2-3.6-2-6c0-2.5,0.7-4.5,2-6.1s3.2-2.3,5.5-2.3s4.1,0.8,5.4,2.3
					S387.5,38.5,387.5,41z M397.3,47.2c1.6,0,2.8-0.5,3.6-1.6s1.2-2.5,1.2-4.4c0-2.2-0.4-3.8-1.1-4.9s-2-1.6-3.7-1.6
					c-0.8,0-1.4,0.2-2,0.5s-1,0.8-1.4,1.3s-0.6,1.2-0.8,2s-0.3,1.6-0.3,2.5c0,1.3,0.2,2.3,0.5,3.3s0.8,1.7,1.5,2.2
					S396.3,47.2,397.3,47.2z M402.1,46.7c-0.5,0.8-1.2,1.5-2.1,1.9s-1.9,0.7-2.9,0.7c-2.1,0-3.8-0.8-5-2.3s-1.8-3.6-1.8-6.2
					c0-2.5,0.6-4.5,1.8-6s2.9-2.3,4.9-2.3c1.1,0,2.1,0.2,3,0.7s1.6,1.1,2.1,1.9v-1.4v-7.1l2.4-0.1V49h-2.1L402.1,46.7z"/>
				<path id="cuisine" class="st0" d="M479.5,49.3c-2.4,0-4.2-0.8-5.5-2.3s-2-3.5-2-6s0.7-4.5,2-6.1s3.2-2.3,5.6-2.3
					c0.8,0,1.6,0.1,2.4,0.3s1.4,0.5,1.8,0.8l-0.7,1.9c-1.1-0.6-2.3-0.9-3.6-0.9c-1.6,0-2.8,0.6-3.7,1.7s-1.4,2.7-1.4,4.6
					c0,1.9,0.4,3.4,1.3,4.5s2.1,1.7,3.7,1.7c1.3,0,2.5-0.3,3.9-1l0.3,1.9C482.6,49,481.2,49.3,479.5,49.3z M486.3,43.6V32.9h2.5
					v10.7c0,0.7,0.1,1.3,0.3,1.8s0.5,0.9,0.9,1.1s0.8,0.5,1.3,0.6s1,0.2,1.6,0.2c1.3,0,2.3-0.3,3-0.8s1.1-1.5,1.1-2.8V32.9h2.5v10.7
					c0,0.8-0.1,1.6-0.4,2.2s-0.5,1.2-0.9,1.6s-0.9,0.8-1.4,1.1s-1.1,0.5-1.8,0.6s-1.3,0.2-2,0.2s-1.4-0.1-2-0.2s-1.2-0.3-1.8-0.6
					s-1-0.6-1.5-1.1s-0.7-1-1-1.6S486.3,44.4,486.3,43.6z M505.9,32.9V49h-2.5V32.9H505.9z M505.9,27.1V30h-2.5v-2.9H505.9z
					 M515.3,49.3c-1.1,0-2.1-0.1-3-0.4s-1.7-0.5-2.2-0.9l0.3-2.1c1.6,0.9,3.2,1.3,4.8,1.3c2.4,0,3.6-0.8,3.7-2.5
					c0-0.7-0.3-1.3-0.8-1.7s-1.5-0.9-3-1.4l-1.2-0.4c-1.4-0.5-2.4-1-3-1.7s-0.9-1.6-0.9-2.6c0-1.3,0.5-2.3,1.5-3.1
					c1-0.8,2.4-1.2,4.2-1.2s3.5,0.4,5,1.1l-0.7,1.9c-1.5-0.6-2.9-0.9-4.2-0.9c-1,0-1.8,0.2-2.4,0.6s-0.9,1-0.9,1.7
					c0,0.6,0.2,1.1,0.6,1.4s1.3,0.7,2.5,1.1c0.3,0.1,0.7,0.3,1.2,0.4c1.6,0.5,2.8,1.1,3.4,1.9s1,1.7,1,2.9c0,1.5-0.6,2.6-1.6,3.4
					S517,49.3,515.3,49.3z M527.3,32.9V49h-2.5V32.9H527.3z M527.3,27.1V30h-2.5v-2.9H527.3z M531.9,49V32.9h2.1l0.3,2.3
					c0.6-0.8,1.4-1.4,2.4-1.9s2-0.7,3.1-0.7c1.9,0,3.2,0.5,4.1,1.6s1.3,2.6,1.3,4.8v10h-2.4c0-6.4,0-9.9,0-10.4c0-1.4-0.3-2.4-0.8-3
					s-1.4-1-2.6-1c-1.3,0-2.3,0.3-3.1,0.9s-1.4,1.4-1.6,2.4c-0.1,0.7-0.1,1.4-0.1,2.3V49H531.9z M555.6,34.6c-1.2,0-2.3,0.4-3.1,1.3
					s-1.3,2.1-1.4,3.6h8.5c0-1.6-0.4-2.8-1.1-3.7S556.8,34.6,555.6,34.6z M556.1,49.3c-2.3,0-4.2-0.7-5.5-2.2s-2-3.5-2-6.1
					c0-2.5,0.6-4.5,1.9-6.1s3-2.3,5.1-2.4c2,0,3.6,0.7,4.7,2s1.8,3.2,1.8,5.5c0,0.1,0,0.3,0,0.6s0,0.5,0,0.7h-11
					c0,1.8,0.5,3.2,1.4,4.3s2.1,1.5,3.7,1.5c1.7,0,3.4-0.4,5.1-1.3l0.4,2C560,48.8,558.1,49.3,556.1,49.3z"/>
				<path id="review" class="st0" d="M661.1,32.8c0.4,0,0.8,0,1.2,0.1l-0.1,2.3c-0.4-0.1-0.8-0.1-1.2-0.1c-1.4,0-2.5,0.5-3.3,1.4
					s-1.3,2.1-1.3,3.5v9H654c0-9.9,0-15.2,0-16.1h2l0.2,2.9c0.6-0.9,1.3-1.6,2.1-2.2S660.1,32.8,661.1,32.8z M671.1,34.6
					c-1.2,0-2.3,0.4-3.1,1.3s-1.3,2.1-1.4,3.6h8.5c0-1.6-0.4-2.8-1.1-3.7S672.3,34.6,671.1,34.6z M671.6,49.3
					c-2.3,0-4.2-0.7-5.5-2.2s-2-3.5-2-6.1c0-2.5,0.6-4.5,1.9-6.1s3-2.3,5.1-2.4c2,0,3.6,0.7,4.7,2s1.8,3.2,1.8,5.5
					c0,0.1,0,0.3,0,0.6s0,0.5,0,0.7h-11c0,1.8,0.5,3.2,1.4,4.3s2.1,1.5,3.7,1.5c1.7,0,3.4-0.4,5.1-1.3l0.4,2
					C675.5,48.8,673.7,49.3,671.6,49.3z M685.1,49l-6.2-16.1h2.6l3.5,9.6l1.5,4.1c0.3-1,0.8-2.4,1.4-4c0.7-2.1,1.9-5.3,3.5-9.6h2.6
					l-6.2,16H685.1z M699,32.9V49h-2.5V32.9H699z M699,27.1V30h-2.5v-2.9H699z M709.9,34.6c-1.2,0-2.3,0.4-3.1,1.3s-1.3,2.1-1.4,3.6
					h8.5c0-1.6-0.4-2.8-1.1-3.7S711.2,34.6,709.9,34.6z M710.4,49.3c-2.3,0-4.2-0.7-5.5-2.2s-2-3.5-2-6.1c0-2.5,0.6-4.5,1.9-6.1
					s3-2.3,5.1-2.4c2,0,3.6,0.7,4.7,2s1.8,3.2,1.8,5.5c0,0.1,0,0.3,0,0.6s0,0.5,0,0.7h-11c0,1.8,0.5,3.2,1.4,4.3s2.1,1.5,3.7,1.5
					c1.7,0,3.4-0.4,5.1-1.3l0.4,2C714.3,48.8,712.5,49.3,710.4,49.3z M733.7,49c-2.3-7.2-3.7-11.7-4.2-13.5c-0.3,1.1-0.6,2.2-1,3.5
					s-0.7,2.3-1,3.2s-0.7,2.1-1.1,3.5s-0.8,2.5-1.1,3.3h-2.6L718,32.9h2.5l3.4,13.2c0.5-1.6,1.9-5.9,4.2-13.2h2.8
					c2.3,7.4,3.7,11.7,4.1,13.1l3.4-13.1h2.5L736.3,49H733.7z"/>
			</g>
			<path id="Line-2" class="st4" d="M95.5,415.6V241.2"/>
			<path id="Line-2-Copy" class="st4" d="M311.5,415.6V241.2"/>
			<circle id="Oval" class="st1" cx="95.5" cy="236.5" r="7.5"/>
			<circle id="Oval-Copy" class="st1" cx="311.5" cy="236.5" r="7.5"/>
			<path id="Line-2-Copy-2" class="st4" d="M517.5,415.6V241.2"/>
			<circle id="Oval-Copy-2" class="st1" cx="517.5" cy="236.5" r="7.5"/>
			<path id="Line-2-Copy-3" class="st4" d="M865.5,415.6V241.2"/>
			<path id="Line-2-Copy-5" class="st4" d="M1034.5,415.6V241.2"/>
			<path id="Line-2-Copy-4" class="st4" d="M697.5,415.6V241.2"/>
			<circle id="Oval-Copy-3" class="st1" cx="865.5" cy="236.5" r="7.5"/>
			<circle id="Oval-Copy-5" class="st1" cx="1034.5" cy="236.5" r="7.5"/>
			<circle id="Oval-Copy-4" class="st1" cx="697.5" cy="236.5" r="7.5"/>
		</g>
	</g>
	<line class="st2" x1="43" y1="224" x2="1169.6" y2="224"/>
</g>
</svg>
